<?xml version="1.0" encoding="UTF-8" standalone="no"?>
<!DOCTYPE svg PUBLIC "-//W3C//DTD SVG 1.1//EN"
 "http://www.w3.org/Graphics/SVG/1.1/DTD/svg11.dtd">
<!-- Generated by graphviz version 2.50.0 (0)
 -->
<!-- Title: snakemake_dag Pages: 1 -->
<svg width="334pt" height="404pt"
 viewBox="0.00 0.00 334.00 404.00" xmlns="http://www.w3.org/2000/svg" xmlns:xlink="http://www.w3.org/1999/xlink">
<g id="graph0" class="graph" transform="scale(1 1) rotate(0) translate(4 400)">
<title>snakemake_dag</title>
<polygon fill="white" stroke="transparent" points="-4,4 -4,-400 330,-400 330,4 -4,4"/>
<!-- 0 -->
<g id="node1" class="node">
<title>0</title>
<path fill="none" stroke="#56d87b" stroke-width="2" d="M190.5,-36C190.5,-36 160.5,-36 160.5,-36 154.5,-36 148.5,-30 148.5,-24 148.5,-24 148.5,-12 148.5,-12 148.5,-6 154.5,0 160.5,0 160.5,0 190.5,0 190.5,0 196.5,0 202.5,-6 202.5,-12 202.5,-12 202.5,-24 202.5,-24 202.5,-30 196.5,-36 190.5,-36"/>
<text text-anchor="middle" x="175.5" y="-15.5" font-family="sans" font-size="10.00">vis_auc</text>
</g>
<!-- 1 -->
<g id="node2" class="node">
<title>1</title>
<path fill="none" stroke="#d85656" stroke-width="2" d="M196,-108C196,-108 155,-108 155,-108 149,-108 143,-102 143,-96 143,-96 143,-84 143,-84 143,-78 149,-72 155,-72 155,-72 196,-72 196,-72 202,-72 208,-78 208,-84 208,-84 208,-96 208,-96 208,-102 202,-108 196,-108"/>
<text text-anchor="middle" x="175.5" y="-87.5" font-family="sans" font-size="10.00">run_EGAD</text>
</g>
<!-- 1&#45;&gt;0 -->
<g id="edge1" class="edge">
<title>1&#45;&gt;0</title>
<path fill="none" stroke="grey" stroke-width="2" d="M175.5,-71.7C175.5,-63.98 175.5,-54.71 175.5,-46.11"/>
<polygon fill="grey" stroke="grey" stroke-width="2" points="179,-46.1 175.5,-36.1 172,-46.1 179,-46.1"/>
</g>
<!-- 2 -->
<g id="node3" class="node">
<title>2</title>
<path fill="none" stroke="#56d8c9" stroke-width="2" d="M218,-180C218,-180 133,-180 133,-180 127,-180 121,-174 121,-168 121,-168 121,-156 121,-156 121,-150 127,-144 133,-144 133,-144 218,-144 218,-144 224,-144 230,-150 230,-156 230,-156 230,-168 230,-168 230,-174 224,-180 218,-180"/>
<text text-anchor="middle" x="175.5" y="-159.5" font-family="sans" font-size="10.00">create_pseudobulk</text>
</g>
<!-- 2&#45;&gt;1 -->
<g id="edge2" class="edge">
<title>2&#45;&gt;1</title>
<path fill="none" stroke="grey" stroke-width="2" d="M175.5,-143.7C175.5,-135.98 175.5,-126.71 175.5,-118.11"/>
<polygon fill="grey" stroke="grey" stroke-width="2" points="179,-118.1 175.5,-108.1 172,-118.1 179,-118.1"/>
</g>
<!-- 3 -->
<g id="node4" class="node">
<title>3</title>
<path fill="none" stroke="#d8a456" stroke-width="2" d="M168.5,-252C168.5,-252 38.5,-252 38.5,-252 32.5,-252 26.5,-246 26.5,-240 26.5,-240 26.5,-228 26.5,-228 26.5,-222 32.5,-216 38.5,-216 38.5,-216 168.5,-216 168.5,-216 174.5,-216 180.5,-222 180.5,-228 180.5,-228 180.5,-240 180.5,-240 180.5,-246 174.5,-252 168.5,-252"/>
<text text-anchor="middle" x="103.5" y="-237" font-family="sans" font-size="10.00">average_UMIs</text>
<text text-anchor="middle" x="103.5" y="-226" font-family="sans" font-size="10.00">h5adfile: TS_Large_Intestine</text>
</g>
<!-- 3&#45;&gt;2 -->
<g id="edge3" class="edge">
<title>3&#45;&gt;2</title>
<path fill="none" stroke="grey" stroke-width="2" d="M121.3,-215.7C130.1,-207.14 140.88,-196.66 150.5,-187.3"/>
<polygon fill="grey" stroke="grey" stroke-width="2" points="153.18,-189.58 157.91,-180.1 148.3,-184.57 153.18,-189.58"/>
</g>
<!-- 4 -->
<g id="node5" class="node">
<title>4</title>
<path fill="none" stroke="#c6d856" stroke-width="2" d="M169,-324C169,-324 12,-324 12,-324 6,-324 0,-318 0,-312 0,-312 0,-300 0,-300 0,-294 6,-288 12,-288 12,-288 169,-288 169,-288 175,-288 181,-294 181,-300 181,-300 181,-312 181,-312 181,-318 175,-324 169,-324"/>
<text text-anchor="middle" x="90.5" y="-309" font-family="sans" font-size="10.00">normalize_depth</text>
<text text-anchor="middle" x="90.5" y="-298" font-family="sans" font-size="10.00">h5adfile: TS_Large_Intestine.h5ad</text>
</g>
<!-- 4&#45;&gt;3 -->
<g id="edge5" class="edge">
<title>4&#45;&gt;3</title>
<path fill="none" stroke="grey" stroke-width="2" d="M93.71,-287.7C95.15,-279.98 96.87,-270.71 98.46,-262.11"/>
<polygon fill="grey" stroke="grey" stroke-width="2" points="101.94,-262.58 100.32,-252.1 95.06,-261.3 101.94,-262.58"/>
</g>
<!-- 5 -->
<g id="node6" class="node">
<title>5</title>
<path fill="none" stroke="#78d856" stroke-width="2" d="M155.5,-396C155.5,-396 25.5,-396 25.5,-396 19.5,-396 13.5,-390 13.5,-384 13.5,-384 13.5,-372 13.5,-372 13.5,-366 19.5,-360 25.5,-360 25.5,-360 155.5,-360 155.5,-360 161.5,-360 167.5,-366 167.5,-372 167.5,-372 167.5,-384 167.5,-384 167.5,-390 161.5,-396 155.5,-396"/>
<text text-anchor="middle" x="90.5" y="-381" font-family="sans" font-size="10.00">subsample</text>
<text text-anchor="middle" x="90.5" y="-370" font-family="sans" font-size="10.00">h5adfile: TS_Large_Intestine</text>
</g>
<!-- 5&#45;&gt;4 -->
<g id="edge6" class="edge">
<title>5&#45;&gt;4</title>
<path fill="none" stroke="grey" stroke-width="2" d="M90.5,-359.7C90.5,-351.98 90.5,-342.71 90.5,-334.11"/>
<polygon fill="grey" stroke="grey" stroke-width="2" points="94,-334.1 90.5,-324.1 87,-334.1 94,-334.1"/>
</g>
<!-- 6 -->
<g id="node7" class="node">
<title>6</title>
<path fill="none" stroke="#d8a456" stroke-width="2" d="M293.5,-252C293.5,-252 217.5,-252 217.5,-252 211.5,-252 205.5,-246 205.5,-240 205.5,-240 205.5,-228 205.5,-228 205.5,-222 211.5,-216 217.5,-216 217.5,-216 293.5,-216 293.5,-216 299.5,-216 305.5,-222 305.5,-228 305.5,-228 305.5,-240 305.5,-240 305.5,-246 299.5,-252 293.5,-252"/>
<text text-anchor="middle" x="255.5" y="-237" font-family="sans" font-size="10.00">average_UMIs</text>
<text text-anchor="middle" x="255.5" y="-226" font-family="sans" font-size="10.00">h5adfile: TS_Skin</text>
</g>
<!-- 6&#45;&gt;2 -->
<g id="edge4" class="edge">
<title>6&#45;&gt;2</title>
<path fill="none" stroke="grey" stroke-width="2" d="M235.72,-215.7C225.75,-206.97 213.49,-196.24 202.64,-186.75"/>
<polygon fill="grey" stroke="grey" stroke-width="2" points="204.88,-184.06 195.05,-180.1 200.27,-189.32 204.88,-184.06"/>
</g>
<!-- 7 -->
<g id="node8" class="node">
<title>7</title>
<path fill="none" stroke="#c6d856" stroke-width="2" d="M314,-324C314,-324 211,-324 211,-324 205,-324 199,-318 199,-312 199,-312 199,-300 199,-300 199,-294 205,-288 211,-288 211,-288 314,-288 314,-288 320,-288 326,-294 326,-300 326,-300 326,-312 326,-312 326,-318 320,-324 314,-324"/>
<text text-anchor="middle" x="262.5" y="-309" font-family="sans" font-size="10.00">normalize_depth</text>
<text text-anchor="middle" x="262.5" y="-298" font-family="sans" font-size="10.00">h5adfile: TS_Skin.h5ad</text>
</g>
<!-- 7&#45;&gt;6 -->
<g id="edge7" class="edge">
<title>7&#45;&gt;6</title>
<path fill="none" stroke="grey" stroke-width="2" d="M260.77,-287.7C260,-279.98 259.07,-270.71 258.21,-262.11"/>
<polygon fill="grey" stroke="grey" stroke-width="2" points="261.69,-261.71 257.21,-252.1 254.72,-262.4 261.69,-261.71"/>
</g>
<!-- 8 -->
<g id="node9" class="node">
<title>8</title>
<path fill="none" stroke="#78d856" stroke-width="2" d="M300.5,-396C300.5,-396 224.5,-396 224.5,-396 218.5,-396 212.5,-390 212.5,-384 212.5,-384 212.5,-372 212.5,-372 212.5,-366 218.5,-360 224.5,-360 224.5,-360 300.5,-360 300.5,-360 306.5,-360 312.5,-366 312.5,-372 312.5,-372 312.5,-384 312.5,-384 312.5,-390 306.5,-396 300.5,-396"/>
<text text-anchor="middle" x="262.5" y="-381" font-family="sans" font-size="10.00">subsample</text>
<text text-anchor="middle" x="262.5" y="-370" font-family="sans" font-size="10.00">h5adfile: TS_Skin</text>
</g>
<!-- 8&#45;&gt;7 -->
<g id="edge8" class="edge">
<title>8&#45;&gt;7</title>
<path fill="none" stroke="grey" stroke-width="2" d="M262.5,-359.7C262.5,-351.98 262.5,-342.71 262.5,-334.11"/>
<polygon fill="grey" stroke="grey" stroke-width="2" points="266,-334.1 262.5,-324.1 259,-334.1 266,-334.1"/>
</g>
</g>
</svg>
