<?xml version="1.0" encoding="UTF-8" standalone="no"?>
<!DOCTYPE svg PUBLIC "-//W3C//DTD SVG 1.1//EN"
 "http://www.w3.org/Graphics/SVG/1.1/DTD/svg11.dtd">
<!-- Generated by graphviz version 2.50.0 (0)
 -->
<!-- Title: snakemake_dag Pages: 1 -->
<svg width="222pt" height="404pt"
 viewBox="0.00 0.00 222.00 404.00" xmlns="http://www.w3.org/2000/svg" xmlns:xlink="http://www.w3.org/1999/xlink">
<g id="graph0" class="graph" transform="scale(1 1) rotate(0) translate(4 400)">
<title>snakemake_dag</title>
<polygon fill="white" stroke="transparent" points="-4,4 -4,-400 218,-400 218,4 -4,4"/>
<!-- 0 -->
<g id="node1" class="node">
<title>0</title>
<path fill="none" stroke="#78d856" stroke-width="2" d="M122,-36C122,-36 92,-36 92,-36 86,-36 80,-30 80,-24 80,-24 80,-12 80,-12 80,-6 86,0 92,0 92,0 122,0 122,0 128,0 134,-6 134,-12 134,-12 134,-24 134,-24 134,-30 128,-36 122,-36"/>
<text text-anchor="middle" x="107" y="-15.5" font-family="sans" font-size="10.00">vis_auc</text>
</g>
<!-- 1 -->
<g id="node2" class="node">
<title>1</title>
<path fill="none" stroke="#56a2d8" stroke-width="2" d="M127.5,-108C127.5,-108 86.5,-108 86.5,-108 80.5,-108 74.5,-102 74.5,-96 74.5,-96 74.5,-84 74.5,-84 74.5,-78 80.5,-72 86.5,-72 86.5,-72 127.5,-72 127.5,-72 133.5,-72 139.5,-78 139.5,-84 139.5,-84 139.5,-96 139.5,-96 139.5,-102 133.5,-108 127.5,-108"/>
<text text-anchor="middle" x="107" y="-87.5" font-family="sans" font-size="10.00">run_EGAD</text>
</g>
<!-- 1&#45;&gt;0 -->
<g id="edge1" class="edge">
<title>1&#45;&gt;0</title>
<path fill="none" stroke="grey" stroke-width="2" d="M107,-71.7C107,-63.98 107,-54.71 107,-46.11"/>
<polygon fill="grey" stroke="grey" stroke-width="2" points="110.5,-46.1 107,-36.1 103.5,-46.1 110.5,-46.1"/>
</g>
<!-- 2 -->
<g id="node3" class="node">
<title>2</title>
<path fill="none" stroke="#c6d856" stroke-width="2" d="M149.5,-180C149.5,-180 64.5,-180 64.5,-180 58.5,-180 52.5,-174 52.5,-168 52.5,-168 52.5,-156 52.5,-156 52.5,-150 58.5,-144 64.5,-144 64.5,-144 149.5,-144 149.5,-144 155.5,-144 161.5,-150 161.5,-156 161.5,-156 161.5,-168 161.5,-168 161.5,-174 155.5,-180 149.5,-180"/>
<text text-anchor="middle" x="107" y="-159.5" font-family="sans" font-size="10.00">create_pseudobulk</text>
</g>
<!-- 2&#45;&gt;1 -->
<g id="edge2" class="edge">
<title>2&#45;&gt;1</title>
<path fill="none" stroke="grey" stroke-width="2" d="M107,-143.7C107,-135.98 107,-126.71 107,-118.11"/>
<polygon fill="grey" stroke="grey" stroke-width="2" points="110.5,-118.1 107,-108.1 103.5,-118.1 110.5,-118.1"/>
</g>
<!-- 3 -->
<g id="node4" class="node">
<title>3</title>
<path fill="none" stroke="#56d87b" stroke-width="2" d="M86,-252C86,-252 24,-252 24,-252 18,-252 12,-246 12,-240 12,-240 12,-228 12,-228 12,-222 18,-216 24,-216 24,-216 86,-216 86,-216 92,-216 98,-222 98,-228 98,-228 98,-240 98,-240 98,-246 92,-252 86,-252"/>
<text text-anchor="middle" x="55" y="-231.5" font-family="sans" font-size="10.00">average_UMIs</text>
</g>
<!-- 3&#45;&gt;2 -->
<g id="edge3" class="edge">
<title>3&#45;&gt;2</title>
<path fill="none" stroke="grey" stroke-width="2" d="M67.85,-215.7C74.03,-207.39 81.54,-197.28 88.32,-188.14"/>
<polygon fill="grey" stroke="grey" stroke-width="2" points="91.14,-190.22 94.29,-180.1 85.52,-186.04 91.14,-190.22"/>
</g>
<!-- 4 -->
<g id="node5" class="node">
<title>4</title>
<path fill="none" stroke="#56d8c9" stroke-width="2" d="M86,-324C86,-324 12,-324 12,-324 6,-324 0,-318 0,-312 0,-312 0,-300 0,-300 0,-294 6,-288 12,-288 12,-288 86,-288 86,-288 92,-288 98,-294 98,-300 98,-300 98,-312 98,-312 98,-318 92,-324 86,-324"/>
<text text-anchor="middle" x="49" y="-303.5" font-family="sans" font-size="10.00">normalize_depth</text>
</g>
<!-- 4&#45;&gt;3 -->
<g id="edge5" class="edge">
<title>4&#45;&gt;3</title>
<path fill="none" stroke="grey" stroke-width="2" d="M50.48,-287.7C51.14,-279.98 51.94,-270.71 52.68,-262.11"/>
<polygon fill="grey" stroke="grey" stroke-width="2" points="56.17,-262.37 53.53,-252.1 49.19,-261.77 56.17,-262.37"/>
</g>
<!-- 5 -->
<g id="node6" class="node">
<title>5</title>
<path fill="none" stroke="#d8a456" stroke-width="2" d="M72,-396C72,-396 26,-396 26,-396 20,-396 14,-390 14,-384 14,-384 14,-372 14,-372 14,-366 20,-360 26,-360 26,-360 72,-360 72,-360 78,-360 84,-366 84,-372 84,-372 84,-384 84,-384 84,-390 78,-396 72,-396"/>
<text text-anchor="middle" x="49" y="-381" font-family="sans" font-size="10.00">subsample</text>
<text text-anchor="middle" x="49" y="-370" font-family="sans" font-size="10.00">h5adfile: B</text>
</g>
<!-- 5&#45;&gt;4 -->
<g id="edge6" class="edge">
<title>5&#45;&gt;4</title>
<path fill="none" stroke="grey" stroke-width="2" d="M49,-359.7C49,-351.98 49,-342.71 49,-334.11"/>
<polygon fill="grey" stroke="grey" stroke-width="2" points="52.5,-334.1 49,-324.1 45.5,-334.1 52.5,-334.1"/>
</g>
<!-- 6 -->
<g id="node7" class="node">
<title>6</title>
<path fill="none" stroke="#56d87b" stroke-width="2" d="M193,-252C193,-252 131,-252 131,-252 125,-252 119,-246 119,-240 119,-240 119,-228 119,-228 119,-222 125,-216 131,-216 131,-216 193,-216 193,-216 199,-216 205,-222 205,-228 205,-228 205,-240 205,-240 205,-246 199,-252 193,-252"/>
<text text-anchor="middle" x="162" y="-231.5" font-family="sans" font-size="10.00">average_UMIs</text>
</g>
<!-- 6&#45;&gt;2 -->
<g id="edge4" class="edge">
<title>6&#45;&gt;2</title>
<path fill="none" stroke="grey" stroke-width="2" d="M148.4,-215.7C141.88,-207.39 133.93,-197.28 126.75,-188.14"/>
<polygon fill="grey" stroke="grey" stroke-width="2" points="129.37,-185.81 120.44,-180.1 123.87,-190.13 129.37,-185.81"/>
</g>
<!-- 7 -->
<g id="node8" class="node">
<title>7</title>
<path fill="none" stroke="#56d8c9" stroke-width="2" d="M202,-324C202,-324 128,-324 128,-324 122,-324 116,-318 116,-312 116,-312 116,-300 116,-300 116,-294 122,-288 128,-288 128,-288 202,-288 202,-288 208,-288 214,-294 214,-300 214,-300 214,-312 214,-312 214,-318 208,-324 202,-324"/>
<text text-anchor="middle" x="165" y="-303.5" font-family="sans" font-size="10.00">normalize_depth</text>
</g>
<!-- 7&#45;&gt;6 -->
<g id="edge7" class="edge">
<title>7&#45;&gt;6</title>
<path fill="none" stroke="grey" stroke-width="2" d="M164.26,-287.7C163.93,-279.98 163.53,-270.71 163.16,-262.11"/>
<polygon fill="grey" stroke="grey" stroke-width="2" points="166.66,-261.95 162.73,-252.1 159.66,-262.25 166.66,-261.95"/>
</g>
<!-- 8 -->
<g id="node9" class="node">
<title>8</title>
<path fill="none" stroke="#d8a456" stroke-width="2" d="M188,-396C188,-396 142,-396 142,-396 136,-396 130,-390 130,-384 130,-384 130,-372 130,-372 130,-366 136,-360 142,-360 142,-360 188,-360 188,-360 194,-360 200,-366 200,-372 200,-372 200,-384 200,-384 200,-390 194,-396 188,-396"/>
<text text-anchor="middle" x="165" y="-381" font-family="sans" font-size="10.00">subsample</text>
<text text-anchor="middle" x="165" y="-370" font-family="sans" font-size="10.00">h5adfile: A</text>
</g>
<!-- 8&#45;&gt;7 -->
<g id="edge8" class="edge">
<title>8&#45;&gt;7</title>
<path fill="none" stroke="grey" stroke-width="2" d="M165,-359.7C165,-351.98 165,-342.71 165,-334.11"/>
<polygon fill="grey" stroke="grey" stroke-width="2" points="168.5,-334.1 165,-324.1 161.5,-334.1 168.5,-334.1"/>
</g>
</g>
</svg>
