<?xml version="1.0" encoding="utf-8" standalone="no"?>
<!DOCTYPE svg PUBLIC "-//W3C//DTD SVG 1.1//EN"
  "http://www.w3.org/Graphics/SVG/1.1/DTD/svg11.dtd">
<svg xmlns:xlink="http://www.w3.org/1999/xlink" width="264.50955pt" height="553.44915pt" viewBox="0 0 264.50955 553.44915" xmlns="http://www.w3.org/2000/svg" version="1.1">
 <metadata>
  <rdf:RDF xmlns:dc="http://purl.org/dc/elements/1.1/" xmlns:cc="http://creativecommons.org/ns#" xmlns:rdf="http://www.w3.org/1999/02/22-rdf-syntax-ns#">
   <cc:Work>
    <dc:type rdf:resource="http://purl.org/dc/dcmitype/StillImage"/>
    <dc:date>2025-05-29T16:20:40.377895</dc:date>
    <dc:format>image/svg+xml</dc:format>
    <dc:creator>
     <cc:Agent>
      <dc:title>Matplotlib v3.8.2, https://matplotlib.org/</dc:title>
     </cc:Agent>
    </dc:creator>
   </cc:Work>
  </rdf:RDF>
 </metadata>
 <defs>
  <style type="text/css">*{stroke-linejoin: round; stroke-linecap: butt}</style>
 </defs>
 <g id="figure_1">
  <g id="patch_1">
   <path d="M 0 553.44915 
L 264.50955 553.44915 
L 264.50955 0 
L 0 0 
z
" style="fill: #ffffff"/>
  </g>
  <g id="axes_1">
   <g id="patch_2">
    <path d="M 61.41435 501.8952 
L 257.30955 501.8952 
L 257.30955 7.2 
L 61.41435 7.2 
z
" style="fill: #ffffff"/>
   </g>
   <g id="patch_3">
    <path d="M 71.20911 355.723541 
L 149.56719 355.723541 
L 149.56719 300.495046 
L 71.20911 300.495046 
L 71.20911 355.723541 
z
" clip-path="url(#p65f7a4fc03)" style="fill: #72b6a1; stroke: #595959; stroke-width: 1.2; stroke-linejoin: miter"/>
   </g>
   <g id="patch_4">
    <path d="M 169.15671 342.046125 
L 247.51479 342.046125 
L 247.51479 248.10818 
L 169.15671 248.10818 
L 169.15671 342.046125 
z
" clip-path="url(#p65f7a4fc03)" style="fill: #e99675; stroke: #595959; stroke-width: 1.2; stroke-linejoin: miter"/>
   </g>
   <g id="matplotlib.axis_1">
    <g id="xtick_1">
     <g id="line2d_1">
      <defs>
       <path id="mda3d310e9a" d="M 0 0 
L 0 4.8 
" style="stroke: #000000"/>
      </defs>
      <g>
       <use xlink:href="#mda3d310e9a" x="110.38815" y="501.8952" style="stroke: #000000"/>
      </g>
     </g>
     <g id="text_1">
      <!-- Non Brain -->
      <g transform="translate(71.3178 522.231125) scale(0.1584 -0.1584)">
       <defs>
        <path id="DejaVuSans-4e" d="M 628 4666 
L 1478 4666 
L 3547 763 
L 3547 4666 
L 4159 4666 
L 4159 0 
L 3309 0 
L 1241 3903 
L 1241 0 
L 628 0 
L 628 4666 
z
" transform="scale(0.015625)"/>
        <path id="DejaVuSans-6f" d="M 1959 3097 
Q 1497 3097 1228 2736 
Q 959 2375 959 1747 
Q 959 1119 1226 758 
Q 1494 397 1959 397 
Q 2419 397 2687 759 
Q 2956 1122 2956 1747 
Q 2956 2369 2687 2733 
Q 2419 3097 1959 3097 
z
M 1959 3584 
Q 2709 3584 3137 3096 
Q 3566 2609 3566 1747 
Q 3566 888 3137 398 
Q 2709 -91 1959 -91 
Q 1206 -91 779 398 
Q 353 888 353 1747 
Q 353 2609 779 3096 
Q 1206 3584 1959 3584 
z
" transform="scale(0.015625)"/>
        <path id="DejaVuSans-6e" d="M 3513 2113 
L 3513 0 
L 2938 0 
L 2938 2094 
Q 2938 2591 2744 2837 
Q 2550 3084 2163 3084 
Q 1697 3084 1428 2787 
Q 1159 2491 1159 1978 
L 1159 0 
L 581 0 
L 581 3500 
L 1159 3500 
L 1159 2956 
Q 1366 3272 1645 3428 
Q 1925 3584 2291 3584 
Q 2894 3584 3203 3211 
Q 3513 2838 3513 2113 
z
" transform="scale(0.015625)"/>
        <path id="DejaVuSans-20" transform="scale(0.015625)"/>
        <path id="DejaVuSans-42" d="M 1259 2228 
L 1259 519 
L 2272 519 
Q 2781 519 3026 730 
Q 3272 941 3272 1375 
Q 3272 1813 3026 2020 
Q 2781 2228 2272 2228 
L 1259 2228 
z
M 1259 4147 
L 1259 2741 
L 2194 2741 
Q 2656 2741 2882 2914 
Q 3109 3088 3109 3444 
Q 3109 3797 2882 3972 
Q 2656 4147 2194 4147 
L 1259 4147 
z
M 628 4666 
L 2241 4666 
Q 2963 4666 3353 4366 
Q 3744 4066 3744 3513 
Q 3744 3084 3544 2831 
Q 3344 2578 2956 2516 
Q 3422 2416 3680 2098 
Q 3938 1781 3938 1306 
Q 3938 681 3513 340 
Q 3088 0 2303 0 
L 628 0 
L 628 4666 
z
" transform="scale(0.015625)"/>
        <path id="DejaVuSans-72" d="M 2631 2963 
Q 2534 3019 2420 3045 
Q 2306 3072 2169 3072 
Q 1681 3072 1420 2755 
Q 1159 2438 1159 1844 
L 1159 0 
L 581 0 
L 581 3500 
L 1159 3500 
L 1159 2956 
Q 1341 3275 1631 3429 
Q 1922 3584 2338 3584 
Q 2397 3584 2469 3576 
Q 2541 3569 2628 3553 
L 2631 2963 
z
" transform="scale(0.015625)"/>
        <path id="DejaVuSans-61" d="M 2194 1759 
Q 1497 1759 1228 1600 
Q 959 1441 959 1056 
Q 959 750 1161 570 
Q 1363 391 1709 391 
Q 2188 391 2477 730 
Q 2766 1069 2766 1631 
L 2766 1759 
L 2194 1759 
z
M 3341 1997 
L 3341 0 
L 2766 0 
L 2766 531 
Q 2569 213 2275 61 
Q 1981 -91 1556 -91 
Q 1019 -91 701 211 
Q 384 513 384 1019 
Q 384 1609 779 1909 
Q 1175 2209 1959 2209 
L 2766 2209 
L 2766 2266 
Q 2766 2663 2505 2880 
Q 2244 3097 1772 3097 
Q 1472 3097 1187 3025 
Q 903 2953 641 2809 
L 641 3341 
Q 956 3463 1253 3523 
Q 1550 3584 1831 3584 
Q 2591 3584 2966 3190 
Q 3341 2797 3341 1997 
z
" transform="scale(0.015625)"/>
        <path id="DejaVuSans-69" d="M 603 3500 
L 1178 3500 
L 1178 0 
L 603 0 
L 603 3500 
z
M 603 4863 
L 1178 4863 
L 1178 4134 
L 603 4134 
L 603 4863 
z
" transform="scale(0.015625)"/>
       </defs>
       <use xlink:href="#DejaVuSans-4e"/>
       <use xlink:href="#DejaVuSans-6f" x="74.804688"/>
       <use xlink:href="#DejaVuSans-6e" x="135.986328"/>
       <use xlink:href="#DejaVuSans-20" x="199.365234"/>
       <use xlink:href="#DejaVuSans-42" x="231.152344"/>
       <use xlink:href="#DejaVuSans-72" x="299.755859"/>
       <use xlink:href="#DejaVuSans-61" x="340.869141"/>
       <use xlink:href="#DejaVuSans-69" x="402.148438"/>
       <use xlink:href="#DejaVuSans-6e" x="429.931641"/>
      </g>
     </g>
    </g>
    <g id="xtick_2">
     <g id="line2d_2">
      <g>
       <use xlink:href="#mda3d310e9a" x="208.33575" y="501.8952" style="stroke: #000000"/>
      </g>
     </g>
     <g id="text_2">
      <!-- Brain -->
      <g transform="translate(187.572975 522.231125) scale(0.1584 -0.1584)">
       <use xlink:href="#DejaVuSans-42"/>
       <use xlink:href="#DejaVuSans-72" x="68.603516"/>
       <use xlink:href="#DejaVuSans-61" x="109.716797"/>
       <use xlink:href="#DejaVuSans-69" x="170.996094"/>
       <use xlink:href="#DejaVuSans-6e" x="198.779297"/>
      </g>
     </g>
    </g>
    <g id="text_3">
     <!-- GO Term Relatedness -->
     <g transform="translate(66.82485 542.65545) scale(0.1728 -0.1728)">
      <defs>
       <path id="DejaVuSans-47" d="M 3809 666 
L 3809 1919 
L 2778 1919 
L 2778 2438 
L 4434 2438 
L 4434 434 
Q 4069 175 3628 42 
Q 3188 -91 2688 -91 
Q 1594 -91 976 548 
Q 359 1188 359 2328 
Q 359 3472 976 4111 
Q 1594 4750 2688 4750 
Q 3144 4750 3555 4637 
Q 3966 4525 4313 4306 
L 4313 3634 
Q 3963 3931 3569 4081 
Q 3175 4231 2741 4231 
Q 1884 4231 1454 3753 
Q 1025 3275 1025 2328 
Q 1025 1384 1454 906 
Q 1884 428 2741 428 
Q 3075 428 3337 486 
Q 3600 544 3809 666 
z
" transform="scale(0.015625)"/>
       <path id="DejaVuSans-4f" d="M 2522 4238 
Q 1834 4238 1429 3725 
Q 1025 3213 1025 2328 
Q 1025 1447 1429 934 
Q 1834 422 2522 422 
Q 3209 422 3611 934 
Q 4013 1447 4013 2328 
Q 4013 3213 3611 3725 
Q 3209 4238 2522 4238 
z
M 2522 4750 
Q 3503 4750 4090 4092 
Q 4678 3434 4678 2328 
Q 4678 1225 4090 567 
Q 3503 -91 2522 -91 
Q 1538 -91 948 565 
Q 359 1222 359 2328 
Q 359 3434 948 4092 
Q 1538 4750 2522 4750 
z
" transform="scale(0.015625)"/>
       <path id="DejaVuSans-54" d="M -19 4666 
L 3928 4666 
L 3928 4134 
L 2272 4134 
L 2272 0 
L 1638 0 
L 1638 4134 
L -19 4134 
L -19 4666 
z
" transform="scale(0.015625)"/>
       <path id="DejaVuSans-65" d="M 3597 1894 
L 3597 1613 
L 953 1613 
Q 991 1019 1311 708 
Q 1631 397 2203 397 
Q 2534 397 2845 478 
Q 3156 559 3463 722 
L 3463 178 
Q 3153 47 2828 -22 
Q 2503 -91 2169 -91 
Q 1331 -91 842 396 
Q 353 884 353 1716 
Q 353 2575 817 3079 
Q 1281 3584 2069 3584 
Q 2775 3584 3186 3129 
Q 3597 2675 3597 1894 
z
M 3022 2063 
Q 3016 2534 2758 2815 
Q 2500 3097 2075 3097 
Q 1594 3097 1305 2825 
Q 1016 2553 972 2059 
L 3022 2063 
z
" transform="scale(0.015625)"/>
       <path id="DejaVuSans-6d" d="M 3328 2828 
Q 3544 3216 3844 3400 
Q 4144 3584 4550 3584 
Q 5097 3584 5394 3201 
Q 5691 2819 5691 2113 
L 5691 0 
L 5113 0 
L 5113 2094 
Q 5113 2597 4934 2840 
Q 4756 3084 4391 3084 
Q 3944 3084 3684 2787 
Q 3425 2491 3425 1978 
L 3425 0 
L 2847 0 
L 2847 2094 
Q 2847 2600 2669 2842 
Q 2491 3084 2119 3084 
Q 1678 3084 1418 2786 
Q 1159 2488 1159 1978 
L 1159 0 
L 581 0 
L 581 3500 
L 1159 3500 
L 1159 2956 
Q 1356 3278 1631 3431 
Q 1906 3584 2284 3584 
Q 2666 3584 2933 3390 
Q 3200 3197 3328 2828 
z
" transform="scale(0.015625)"/>
       <path id="DejaVuSans-52" d="M 2841 2188 
Q 3044 2119 3236 1894 
Q 3428 1669 3622 1275 
L 4263 0 
L 3584 0 
L 2988 1197 
Q 2756 1666 2539 1819 
Q 2322 1972 1947 1972 
L 1259 1972 
L 1259 0 
L 628 0 
L 628 4666 
L 2053 4666 
Q 2853 4666 3247 4331 
Q 3641 3997 3641 3322 
Q 3641 2881 3436 2590 
Q 3231 2300 2841 2188 
z
M 1259 4147 
L 1259 2491 
L 2053 2491 
Q 2509 2491 2742 2702 
Q 2975 2913 2975 3322 
Q 2975 3731 2742 3939 
Q 2509 4147 2053 4147 
L 1259 4147 
z
" transform="scale(0.015625)"/>
       <path id="DejaVuSans-6c" d="M 603 4863 
L 1178 4863 
L 1178 0 
L 603 0 
L 603 4863 
z
" transform="scale(0.015625)"/>
       <path id="DejaVuSans-74" d="M 1172 4494 
L 1172 3500 
L 2356 3500 
L 2356 3053 
L 1172 3053 
L 1172 1153 
Q 1172 725 1289 603 
Q 1406 481 1766 481 
L 2356 481 
L 2356 0 
L 1766 0 
Q 1100 0 847 248 
Q 594 497 594 1153 
L 594 3053 
L 172 3053 
L 172 3500 
L 594 3500 
L 594 4494 
L 1172 4494 
z
" transform="scale(0.015625)"/>
       <path id="DejaVuSans-64" d="M 2906 2969 
L 2906 4863 
L 3481 4863 
L 3481 0 
L 2906 0 
L 2906 525 
Q 2725 213 2448 61 
Q 2172 -91 1784 -91 
Q 1150 -91 751 415 
Q 353 922 353 1747 
Q 353 2572 751 3078 
Q 1150 3584 1784 3584 
Q 2172 3584 2448 3432 
Q 2725 3281 2906 2969 
z
M 947 1747 
Q 947 1113 1208 752 
Q 1469 391 1925 391 
Q 2381 391 2643 752 
Q 2906 1113 2906 1747 
Q 2906 2381 2643 2742 
Q 2381 3103 1925 3103 
Q 1469 3103 1208 2742 
Q 947 2381 947 1747 
z
" transform="scale(0.015625)"/>
       <path id="DejaVuSans-73" d="M 2834 3397 
L 2834 2853 
Q 2591 2978 2328 3040 
Q 2066 3103 1784 3103 
Q 1356 3103 1142 2972 
Q 928 2841 928 2578 
Q 928 2378 1081 2264 
Q 1234 2150 1697 2047 
L 1894 2003 
Q 2506 1872 2764 1633 
Q 3022 1394 3022 966 
Q 3022 478 2636 193 
Q 2250 -91 1575 -91 
Q 1294 -91 989 -36 
Q 684 19 347 128 
L 347 722 
Q 666 556 975 473 
Q 1284 391 1588 391 
Q 1994 391 2212 530 
Q 2431 669 2431 922 
Q 2431 1156 2273 1281 
Q 2116 1406 1581 1522 
L 1381 1569 
Q 847 1681 609 1914 
Q 372 2147 372 2553 
Q 372 3047 722 3315 
Q 1072 3584 1716 3584 
Q 2034 3584 2315 3537 
Q 2597 3491 2834 3397 
z
" transform="scale(0.015625)"/>
      </defs>
      <use xlink:href="#DejaVuSans-47"/>
      <use xlink:href="#DejaVuSans-4f" x="77.490234"/>
      <use xlink:href="#DejaVuSans-20" x="156.201172"/>
      <use xlink:href="#DejaVuSans-54" x="187.988281"/>
      <use xlink:href="#DejaVuSans-65" x="232.072266"/>
      <use xlink:href="#DejaVuSans-72" x="293.595703"/>
      <use xlink:href="#DejaVuSans-6d" x="332.958984"/>
      <use xlink:href="#DejaVuSans-20" x="430.371094"/>
      <use xlink:href="#DejaVuSans-52" x="462.158203"/>
      <use xlink:href="#DejaVuSans-65" x="527.140625"/>
      <use xlink:href="#DejaVuSans-6c" x="588.664062"/>
      <use xlink:href="#DejaVuSans-61" x="616.447266"/>
      <use xlink:href="#DejaVuSans-74" x="677.726562"/>
      <use xlink:href="#DejaVuSans-65" x="716.935547"/>
      <use xlink:href="#DejaVuSans-64" x="778.458984"/>
      <use xlink:href="#DejaVuSans-6e" x="841.935547"/>
      <use xlink:href="#DejaVuSans-65" x="905.314453"/>
      <use xlink:href="#DejaVuSans-73" x="966.837891"/>
      <use xlink:href="#DejaVuSans-73" x="1018.9375"/>
     </g>
    </g>
   </g>
   <g id="matplotlib.axis_2">
    <g id="ytick_1">
     <g id="line2d_3">
      <defs>
       <path id="m7187e4704a" d="M 0 0 
L -4.8 0 
" style="stroke: #000000"/>
      </defs>
      <g>
       <use xlink:href="#m7187e4704a" x="61.41435" y="425.946191" style="stroke: #000000"/>
      </g>
     </g>
     <g id="text_4">
      <!-- 0.4 -->
      <g transform="translate(27.9238 431.964154) scale(0.1584 -0.1584)">
       <defs>
        <path id="DejaVuSans-30" d="M 2034 4250 
Q 1547 4250 1301 3770 
Q 1056 3291 1056 2328 
Q 1056 1369 1301 889 
Q 1547 409 2034 409 
Q 2525 409 2770 889 
Q 3016 1369 3016 2328 
Q 3016 3291 2770 3770 
Q 2525 4250 2034 4250 
z
M 2034 4750 
Q 2819 4750 3233 4129 
Q 3647 3509 3647 2328 
Q 3647 1150 3233 529 
Q 2819 -91 2034 -91 
Q 1250 -91 836 529 
Q 422 1150 422 2328 
Q 422 3509 836 4129 
Q 1250 4750 2034 4750 
z
" transform="scale(0.015625)"/>
        <path id="DejaVuSans-2e" d="M 684 794 
L 1344 794 
L 1344 0 
L 684 0 
L 684 794 
z
" transform="scale(0.015625)"/>
        <path id="DejaVuSans-34" d="M 2419 4116 
L 825 1625 
L 2419 1625 
L 2419 4116 
z
M 2253 4666 
L 3047 4666 
L 3047 1625 
L 3713 1625 
L 3713 1100 
L 3047 1100 
L 3047 0 
L 2419 0 
L 2419 1100 
L 313 1100 
L 313 1709 
L 2253 4666 
z
" transform="scale(0.015625)"/>
       </defs>
       <use xlink:href="#DejaVuSans-30"/>
       <use xlink:href="#DejaVuSans-2e" x="63.623047"/>
       <use xlink:href="#DejaVuSans-34" x="95.410156"/>
      </g>
     </g>
    </g>
    <g id="ytick_2">
     <g id="line2d_4">
      <g>
       <use xlink:href="#m7187e4704a" x="61.41435" y="330.364722" style="stroke: #000000"/>
      </g>
     </g>
     <g id="text_5">
      <!-- 0.5 -->
      <g transform="translate(27.9238 336.382684) scale(0.1584 -0.1584)">
       <defs>
        <path id="DejaVuSans-35" d="M 691 4666 
L 3169 4666 
L 3169 4134 
L 1269 4134 
L 1269 2991 
Q 1406 3038 1543 3061 
Q 1681 3084 1819 3084 
Q 2600 3084 3056 2656 
Q 3513 2228 3513 1497 
Q 3513 744 3044 326 
Q 2575 -91 1722 -91 
Q 1428 -91 1123 -41 
Q 819 9 494 109 
L 494 744 
Q 775 591 1075 516 
Q 1375 441 1709 441 
Q 2250 441 2565 725 
Q 2881 1009 2881 1497 
Q 2881 1984 2565 2268 
Q 2250 2553 1709 2553 
Q 1456 2553 1204 2497 
Q 953 2441 691 2322 
L 691 4666 
z
" transform="scale(0.015625)"/>
       </defs>
       <use xlink:href="#DejaVuSans-30"/>
       <use xlink:href="#DejaVuSans-2e" x="63.623047"/>
       <use xlink:href="#DejaVuSans-35" x="95.410156"/>
      </g>
     </g>
    </g>
    <g id="ytick_3">
     <g id="line2d_5">
      <g>
       <use xlink:href="#m7187e4704a" x="61.41435" y="234.783253" style="stroke: #000000"/>
      </g>
     </g>
     <g id="text_6">
      <!-- 0.6 -->
      <g transform="translate(27.9238 240.801215) scale(0.1584 -0.1584)">
       <defs>
        <path id="DejaVuSans-36" d="M 2113 2584 
Q 1688 2584 1439 2293 
Q 1191 2003 1191 1497 
Q 1191 994 1439 701 
Q 1688 409 2113 409 
Q 2538 409 2786 701 
Q 3034 994 3034 1497 
Q 3034 2003 2786 2293 
Q 2538 2584 2113 2584 
z
M 3366 4563 
L 3366 3988 
Q 3128 4100 2886 4159 
Q 2644 4219 2406 4219 
Q 1781 4219 1451 3797 
Q 1122 3375 1075 2522 
Q 1259 2794 1537 2939 
Q 1816 3084 2150 3084 
Q 2853 3084 3261 2657 
Q 3669 2231 3669 1497 
Q 3669 778 3244 343 
Q 2819 -91 2113 -91 
Q 1303 -91 875 529 
Q 447 1150 447 2328 
Q 447 3434 972 4092 
Q 1497 4750 2381 4750 
Q 2619 4750 2861 4703 
Q 3103 4656 3366 4563 
z
" transform="scale(0.015625)"/>
       </defs>
       <use xlink:href="#DejaVuSans-30"/>
       <use xlink:href="#DejaVuSans-2e" x="63.623047"/>
       <use xlink:href="#DejaVuSans-36" x="95.410156"/>
      </g>
     </g>
    </g>
    <g id="ytick_4">
     <g id="line2d_6">
      <g>
       <use xlink:href="#m7187e4704a" x="61.41435" y="139.201784" style="stroke: #000000"/>
      </g>
     </g>
     <g id="text_7">
      <!-- 0.7 -->
      <g transform="translate(27.9238 145.219746) scale(0.1584 -0.1584)">
       <defs>
        <path id="DejaVuSans-37" d="M 525 4666 
L 3525 4666 
L 3525 4397 
L 1831 0 
L 1172 0 
L 2766 4134 
L 525 4134 
L 525 4666 
z
" transform="scale(0.015625)"/>
       </defs>
       <use xlink:href="#DejaVuSans-30"/>
       <use xlink:href="#DejaVuSans-2e" x="63.623047"/>
       <use xlink:href="#DejaVuSans-37" x="95.410156"/>
      </g>
     </g>
    </g>
    <g id="ytick_5">
     <g id="line2d_7">
      <g>
       <use xlink:href="#m7187e4704a" x="61.41435" y="43.620315" style="stroke: #000000"/>
      </g>
     </g>
     <g id="text_8">
      <!-- 0.8 -->
      <g transform="translate(27.9238 49.638277) scale(0.1584 -0.1584)">
       <defs>
        <path id="DejaVuSans-38" d="M 2034 2216 
Q 1584 2216 1326 1975 
Q 1069 1734 1069 1313 
Q 1069 891 1326 650 
Q 1584 409 2034 409 
Q 2484 409 2743 651 
Q 3003 894 3003 1313 
Q 3003 1734 2745 1975 
Q 2488 2216 2034 2216 
z
M 1403 2484 
Q 997 2584 770 2862 
Q 544 3141 544 3541 
Q 544 4100 942 4425 
Q 1341 4750 2034 4750 
Q 2731 4750 3128 4425 
Q 3525 4100 3525 3541 
Q 3525 3141 3298 2862 
Q 3072 2584 2669 2484 
Q 3125 2378 3379 2068 
Q 3634 1759 3634 1313 
Q 3634 634 3220 271 
Q 2806 -91 2034 -91 
Q 1263 -91 848 271 
Q 434 634 434 1313 
Q 434 1759 690 2068 
Q 947 2378 1403 2484 
z
M 1172 3481 
Q 1172 3119 1398 2916 
Q 1625 2713 2034 2713 
Q 2441 2713 2670 2916 
Q 2900 3119 2900 3481 
Q 2900 3844 2670 4047 
Q 2441 4250 2034 4250 
Q 1625 4250 1398 4047 
Q 1172 3844 1172 3481 
z
" transform="scale(0.015625)"/>
       </defs>
       <use xlink:href="#DejaVuSans-30"/>
       <use xlink:href="#DejaVuSans-2e" x="63.623047"/>
       <use xlink:href="#DejaVuSans-38" x="95.410156"/>
      </g>
     </g>
    </g>
    <g id="text_9">
     <!-- Learnability (AUROC) -->
     <g transform="translate(20.3301 345.73875) rotate(-90) scale(0.1728 -0.1728)">
      <defs>
       <path id="DejaVuSans-4c" d="M 628 4666 
L 1259 4666 
L 1259 531 
L 3531 531 
L 3531 0 
L 628 0 
L 628 4666 
z
" transform="scale(0.015625)"/>
       <path id="DejaVuSans-62" d="M 3116 1747 
Q 3116 2381 2855 2742 
Q 2594 3103 2138 3103 
Q 1681 3103 1420 2742 
Q 1159 2381 1159 1747 
Q 1159 1113 1420 752 
Q 1681 391 2138 391 
Q 2594 391 2855 752 
Q 3116 1113 3116 1747 
z
M 1159 2969 
Q 1341 3281 1617 3432 
Q 1894 3584 2278 3584 
Q 2916 3584 3314 3078 
Q 3713 2572 3713 1747 
Q 3713 922 3314 415 
Q 2916 -91 2278 -91 
Q 1894 -91 1617 61 
Q 1341 213 1159 525 
L 1159 0 
L 581 0 
L 581 4863 
L 1159 4863 
L 1159 2969 
z
" transform="scale(0.015625)"/>
       <path id="DejaVuSans-79" d="M 2059 -325 
Q 1816 -950 1584 -1140 
Q 1353 -1331 966 -1331 
L 506 -1331 
L 506 -850 
L 844 -850 
Q 1081 -850 1212 -737 
Q 1344 -625 1503 -206 
L 1606 56 
L 191 3500 
L 800 3500 
L 1894 763 
L 2988 3500 
L 3597 3500 
L 2059 -325 
z
" transform="scale(0.015625)"/>
       <path id="DejaVuSans-28" d="M 1984 4856 
Q 1566 4138 1362 3434 
Q 1159 2731 1159 2009 
Q 1159 1288 1364 580 
Q 1569 -128 1984 -844 
L 1484 -844 
Q 1016 -109 783 600 
Q 550 1309 550 2009 
Q 550 2706 781 3412 
Q 1013 4119 1484 4856 
L 1984 4856 
z
" transform="scale(0.015625)"/>
       <path id="DejaVuSans-41" d="M 2188 4044 
L 1331 1722 
L 3047 1722 
L 2188 4044 
z
M 1831 4666 
L 2547 4666 
L 4325 0 
L 3669 0 
L 3244 1197 
L 1141 1197 
L 716 0 
L 50 0 
L 1831 4666 
z
" transform="scale(0.015625)"/>
       <path id="DejaVuSans-55" d="M 556 4666 
L 1191 4666 
L 1191 1831 
Q 1191 1081 1462 751 
Q 1734 422 2344 422 
Q 2950 422 3222 751 
Q 3494 1081 3494 1831 
L 3494 4666 
L 4128 4666 
L 4128 1753 
Q 4128 841 3676 375 
Q 3225 -91 2344 -91 
Q 1459 -91 1007 375 
Q 556 841 556 1753 
L 556 4666 
z
" transform="scale(0.015625)"/>
       <path id="DejaVuSans-43" d="M 4122 4306 
L 4122 3641 
Q 3803 3938 3442 4084 
Q 3081 4231 2675 4231 
Q 1875 4231 1450 3742 
Q 1025 3253 1025 2328 
Q 1025 1406 1450 917 
Q 1875 428 2675 428 
Q 3081 428 3442 575 
Q 3803 722 4122 1019 
L 4122 359 
Q 3791 134 3420 21 
Q 3050 -91 2638 -91 
Q 1578 -91 968 557 
Q 359 1206 359 2328 
Q 359 3453 968 4101 
Q 1578 4750 2638 4750 
Q 3056 4750 3426 4639 
Q 3797 4528 4122 4306 
z
" transform="scale(0.015625)"/>
       <path id="DejaVuSans-29" d="M 513 4856 
L 1013 4856 
Q 1481 4119 1714 3412 
Q 1947 2706 1947 2009 
Q 1947 1309 1714 600 
Q 1481 -109 1013 -844 
L 513 -844 
Q 928 -128 1133 580 
Q 1338 1288 1338 2009 
Q 1338 2731 1133 3434 
Q 928 4138 513 4856 
z
" transform="scale(0.015625)"/>
      </defs>
      <use xlink:href="#DejaVuSans-4c"/>
      <use xlink:href="#DejaVuSans-65" x="53.962891"/>
      <use xlink:href="#DejaVuSans-61" x="115.486328"/>
      <use xlink:href="#DejaVuSans-72" x="176.765625"/>
      <use xlink:href="#DejaVuSans-6e" x="216.128906"/>
      <use xlink:href="#DejaVuSans-61" x="279.507812"/>
      <use xlink:href="#DejaVuSans-62" x="340.787109"/>
      <use xlink:href="#DejaVuSans-69" x="404.263672"/>
      <use xlink:href="#DejaVuSans-6c" x="432.046875"/>
      <use xlink:href="#DejaVuSans-69" x="459.830078"/>
      <use xlink:href="#DejaVuSans-74" x="487.613281"/>
      <use xlink:href="#DejaVuSans-79" x="526.822266"/>
      <use xlink:href="#DejaVuSans-20" x="586.001953"/>
      <use xlink:href="#DejaVuSans-28" x="617.789062"/>
      <use xlink:href="#DejaVuSans-41" x="656.802734"/>
      <use xlink:href="#DejaVuSans-55" x="725.210938"/>
      <use xlink:href="#DejaVuSans-52" x="798.404297"/>
      <use xlink:href="#DejaVuSans-4f" x="867.886719"/>
      <use xlink:href="#DejaVuSans-43" x="946.597656"/>
      <use xlink:href="#DejaVuSans-29" x="1016.421875"/>
     </g>
    </g>
   </g>
   <g id="line2d_8">
    <path d="M 110.38815 355.723541 
L 110.38815 438.332933 
" clip-path="url(#p65f7a4fc03)" style="fill: none; stroke: #595959; stroke-width: 1.2; stroke-linecap: square"/>
   </g>
   <g id="line2d_9">
    <path d="M 110.38815 300.495046 
L 110.38815 218.326623 
" clip-path="url(#p65f7a4fc03)" style="fill: none; stroke: #595959; stroke-width: 1.2; stroke-linecap: square"/>
   </g>
   <g id="line2d_10">
    <path d="M 90.79863 438.332933 
L 129.97767 438.332933 
" clip-path="url(#p65f7a4fc03)" style="fill: none; stroke: #595959; stroke-width: 1.2; stroke-linecap: square"/>
   </g>
   <g id="line2d_11">
    <path d="M 90.79863 218.326623 
L 129.97767 218.326623 
" clip-path="url(#p65f7a4fc03)" style="fill: none; stroke: #595959; stroke-width: 1.2; stroke-linecap: square"/>
   </g>
   <g id="line2d_12">
    <defs>
     <path id="m52541e9390" d="M -0 3.535534 
L 2.12132 0 
L -0 -3.535534 
L -2.12132 -0 
z
" style="stroke: #595959; stroke-linejoin: miter"/>
    </defs>
    <g clip-path="url(#p65f7a4fc03)">
     <use xlink:href="#m52541e9390" x="110.38815" y="479.409055" style="fill: #595959; stroke: #595959; stroke-linejoin: miter"/>
     <use xlink:href="#m52541e9390" x="110.38815" y="441.204825" style="fill: #595959; stroke: #595959; stroke-linejoin: miter"/>
     <use xlink:href="#m52541e9390" x="110.38815" y="470.882225" style="fill: #595959; stroke: #595959; stroke-linejoin: miter"/>
     <use xlink:href="#m52541e9390" x="110.38815" y="447.896216" style="fill: #595959; stroke: #595959; stroke-linejoin: miter"/>
     <use xlink:href="#m52541e9390" x="110.38815" y="440.608482" style="fill: #595959; stroke: #595959; stroke-linejoin: miter"/>
     <use xlink:href="#m52541e9390" x="110.38815" y="451.388029" style="fill: #595959; stroke: #595959; stroke-linejoin: miter"/>
     <use xlink:href="#m52541e9390" x="110.38815" y="154.304752" style="fill: #595959; stroke: #595959; stroke-linejoin: miter"/>
     <use xlink:href="#m52541e9390" x="110.38815" y="215.496759" style="fill: #595959; stroke: #595959; stroke-linejoin: miter"/>
     <use xlink:href="#m52541e9390" x="110.38815" y="175.375162" style="fill: #595959; stroke: #595959; stroke-linejoin: miter"/>
     <use xlink:href="#m52541e9390" x="110.38815" y="206.363244" style="fill: #595959; stroke: #595959; stroke-linejoin: miter"/>
     <use xlink:href="#m52541e9390" x="110.38815" y="213.420638" style="fill: #595959; stroke: #595959; stroke-linejoin: miter"/>
     <use xlink:href="#m52541e9390" x="110.38815" y="211.657292" style="fill: #595959; stroke: #595959; stroke-linejoin: miter"/>
     <use xlink:href="#m52541e9390" x="110.38815" y="184.825229" style="fill: #595959; stroke: #595959; stroke-linejoin: miter"/>
     <use xlink:href="#m52541e9390" x="110.38815" y="193.018934" style="fill: #595959; stroke: #595959; stroke-linejoin: miter"/>
     <use xlink:href="#m52541e9390" x="110.38815" y="186.557908" style="fill: #595959; stroke: #595959; stroke-linejoin: miter"/>
     <use xlink:href="#m52541e9390" x="110.38815" y="149.895519" style="fill: #595959; stroke: #595959; stroke-linejoin: miter"/>
     <use xlink:href="#m52541e9390" x="110.38815" y="175.295007" style="fill: #595959; stroke: #595959; stroke-linejoin: miter"/>
     <use xlink:href="#m52541e9390" x="110.38815" y="119.623574" style="fill: #595959; stroke: #595959; stroke-linejoin: miter"/>
     <use xlink:href="#m52541e9390" x="110.38815" y="94.740756" style="fill: #595959; stroke: #595959; stroke-linejoin: miter"/>
     <use xlink:href="#m52541e9390" x="110.38815" y="174.728893" style="fill: #595959; stroke: #595959; stroke-linejoin: miter"/>
     <use xlink:href="#m52541e9390" x="110.38815" y="195.908301" style="fill: #595959; stroke: #595959; stroke-linejoin: miter"/>
     <use xlink:href="#m52541e9390" x="110.38815" y="186.629837" style="fill: #595959; stroke: #595959; stroke-linejoin: miter"/>
     <use xlink:href="#m52541e9390" x="110.38815" y="193.650575" style="fill: #595959; stroke: #595959; stroke-linejoin: miter"/>
     <use xlink:href="#m52541e9390" x="110.38815" y="149.664523" style="fill: #595959; stroke: #595959; stroke-linejoin: miter"/>
     <use xlink:href="#m52541e9390" x="110.38815" y="134.121908" style="fill: #595959; stroke: #595959; stroke-linejoin: miter"/>
     <use xlink:href="#m52541e9390" x="110.38815" y="157.949897" style="fill: #595959; stroke: #595959; stroke-linejoin: miter"/>
     <use xlink:href="#m52541e9390" x="110.38815" y="177.565194" style="fill: #595959; stroke: #595959; stroke-linejoin: miter"/>
     <use xlink:href="#m52541e9390" x="110.38815" y="143.869747" style="fill: #595959; stroke: #595959; stroke-linejoin: miter"/>
     <use xlink:href="#m52541e9390" x="110.38815" y="172.220314" style="fill: #595959; stroke: #595959; stroke-linejoin: miter"/>
     <use xlink:href="#m52541e9390" x="110.38815" y="179.386723" style="fill: #595959; stroke: #595959; stroke-linejoin: miter"/>
     <use xlink:href="#m52541e9390" x="110.38815" y="164.330631" style="fill: #595959; stroke: #595959; stroke-linejoin: miter"/>
     <use xlink:href="#m52541e9390" x="110.38815" y="207.054288" style="fill: #595959; stroke: #595959; stroke-linejoin: miter"/>
     <use xlink:href="#m52541e9390" x="110.38815" y="210.307361" style="fill: #595959; stroke: #595959; stroke-linejoin: miter"/>
     <use xlink:href="#m52541e9390" x="110.38815" y="167.433901" style="fill: #595959; stroke: #595959; stroke-linejoin: miter"/>
     <use xlink:href="#m52541e9390" x="110.38815" y="186.755821" style="fill: #595959; stroke: #595959; stroke-linejoin: miter"/>
     <use xlink:href="#m52541e9390" x="110.38815" y="206.642629" style="fill: #595959; stroke: #595959; stroke-linejoin: miter"/>
     <use xlink:href="#m52541e9390" x="110.38815" y="160.637343" style="fill: #595959; stroke: #595959; stroke-linejoin: miter"/>
     <use xlink:href="#m52541e9390" x="110.38815" y="211.862513" style="fill: #595959; stroke: #595959; stroke-linejoin: miter"/>
     <use xlink:href="#m52541e9390" x="110.38815" y="214.340557" style="fill: #595959; stroke: #595959; stroke-linejoin: miter"/>
     <use xlink:href="#m52541e9390" x="110.38815" y="124.978542" style="fill: #595959; stroke: #595959; stroke-linejoin: miter"/>
     <use xlink:href="#m52541e9390" x="110.38815" y="138.887227" style="fill: #595959; stroke: #595959; stroke-linejoin: miter"/>
     <use xlink:href="#m52541e9390" x="110.38815" y="190.669197" style="fill: #595959; stroke: #595959; stroke-linejoin: miter"/>
    </g>
   </g>
   <g id="line2d_13">
    <path d="M 208.33575 342.046125 
L 208.33575 436.696741 
" clip-path="url(#p65f7a4fc03)" style="fill: none; stroke: #595959; stroke-width: 1.2; stroke-linecap: square"/>
   </g>
   <g id="line2d_14">
    <path d="M 208.33575 248.10818 
L 208.33575 136.805906 
" clip-path="url(#p65f7a4fc03)" style="fill: none; stroke: #595959; stroke-width: 1.2; stroke-linecap: square"/>
   </g>
   <g id="line2d_15">
    <path d="M 188.74623 436.696741 
L 227.92527 436.696741 
" clip-path="url(#p65f7a4fc03)" style="fill: none; stroke: #595959; stroke-width: 1.2; stroke-linecap: square"/>
   </g>
   <g id="line2d_16">
    <path d="M 188.74623 136.805906 
L 227.92527 136.805906 
" clip-path="url(#p65f7a4fc03)" style="fill: none; stroke: #595959; stroke-width: 1.2; stroke-linecap: square"/>
   </g>
   <g id="line2d_17">
    <g clip-path="url(#p65f7a4fc03)">
     <use xlink:href="#m52541e9390" x="208.33575" y="29.686145" style="fill: #595959; stroke: #595959; stroke-linejoin: miter"/>
    </g>
   </g>
   <g id="line2d_18">
    <path d="M 71.20911 329.954718 
L 149.56719 329.954718 
" clip-path="url(#p65f7a4fc03)" style="fill: none; stroke: #595959; stroke-width: 1.2"/>
   </g>
   <g id="line2d_19">
    <path d="M 169.15671 304.239878 
L 247.51479 304.239878 
" clip-path="url(#p65f7a4fc03)" style="fill: none; stroke: #595959; stroke-width: 1.2"/>
   </g>
   <g id="patch_5">
    <path d="M 61.41435 501.8952 
L 61.41435 7.2 
" style="fill: none; stroke: #000000; stroke-linejoin: miter; stroke-linecap: square"/>
   </g>
   <g id="patch_6">
    <path d="M 61.41435 501.8952 
L 257.30955 501.8952 
" style="fill: none; stroke: #000000; stroke-linejoin: miter; stroke-linecap: square"/>
   </g>
  </g>
 </g>
 <defs>
  <clipPath id="p65f7a4fc03">
   <rect x="61.41435" y="7.2" width="195.8952" height="494.6952"/>
  </clipPath>
 </defs>
</svg>
