<?xml version="1.0" encoding="utf-8" standalone="no"?>
<!DOCTYPE svg PUBLIC "-//W3C//DTD SVG 1.1//EN"
  "http://www.w3.org/Graphics/SVG/1.1/DTD/svg11.dtd">
<svg xmlns:xlink="http://www.w3.org/1999/xlink" width="155.815pt" height="161.474397pt" viewBox="0 0 155.815 161.474397" xmlns="http://www.w3.org/2000/svg" version="1.1">
 <metadata>
  <rdf:RDF xmlns:dc="http://purl.org/dc/elements/1.1/" xmlns:cc="http://creativecommons.org/ns#" xmlns:rdf="http://www.w3.org/1999/02/22-rdf-syntax-ns#">
   <cc:Work>
    <dc:type rdf:resource="http://purl.org/dc/dcmitype/StillImage"/>
    <dc:date>2026-05-09T12:21:31.608944</dc:date>
    <dc:format>image/svg+xml</dc:format>
    <dc:creator>
     <cc:Agent>
      <dc:title>Matplotlib v3.8.2, https://matplotlib.org/</dc:title>
     </cc:Agent>
    </dc:creator>
   </cc:Work>
  </rdf:RDF>
 </metadata>
 <defs>
  <style type="text/css">*{stroke-linejoin: round; stroke-linecap: butt}</style>
 </defs>
 <g id="figure_1">
  <g id="patch_1">
   <path d="M 0 161.474397 
L 155.815 161.474397 
L 155.815 0 
L 0 0 
z
" style="fill: #ffffff; stroke: #ffffff; stroke-linejoin: miter"/>
  </g>
  <g id="axes_1">
   <g id="patch_2">
    <path d="M 37.015 118.08 
L 148.615 118.08 
L 148.615 7.2 
L 37.015 7.2 
z
" style="fill: #ffffff"/>
   </g>
   <g id="matplotlib.axis_1">
    <g id="xtick_1">
     <g id="line2d_1">
      <path d="M 57.94 118.08 
" style="fill: none; stroke: #000000; stroke-width: 1.2"/>
      <defs>
       <path id="m33db80a1f4" d="M 0 0 
L 0 2.75 
" style="stroke: #333333"/>
      </defs>
      <g>
       <use xlink:href="#m33db80a1f4" x="57.94" y="118.08" style="stroke: #333333"/>
      </g>
     </g>
     <g id="text_1">
      <!-- Depleted -->
      <g style="fill: #4d4d4d" transform="translate(46.616127 153.097948) rotate(-45) scale(0.08 -0.08)">
       <defs>
        <path id="DejaVuSans-44" d="M 1259 4147 
L 1259 519 
L 2022 519 
Q 2988 519 3436 956 
Q 3884 1394 3884 2338 
Q 3884 3275 3436 3711 
Q 2988 4147 2022 4147 
L 1259 4147 
z
M 628 4666 
L 1925 4666 
Q 3281 4666 3915 4102 
Q 4550 3538 4550 2338 
Q 4550 1131 3912 565 
Q 3275 0 1925 0 
L 628 0 
L 628 4666 
z
" transform="scale(0.015625)"/>
        <path id="DejaVuSans-65" d="M 3597 1894 
L 3597 1613 
L 953 1613 
Q 991 1019 1311 708 
Q 1631 397 2203 397 
Q 2534 397 2845 478 
Q 3156 559 3463 722 
L 3463 178 
Q 3153 47 2828 -22 
Q 2503 -91 2169 -91 
Q 1331 -91 842 396 
Q 353 884 353 1716 
Q 353 2575 817 3079 
Q 1281 3584 2069 3584 
Q 2775 3584 3186 3129 
Q 3597 2675 3597 1894 
z
M 3022 2063 
Q 3016 2534 2758 2815 
Q 2500 3097 2075 3097 
Q 1594 3097 1305 2825 
Q 1016 2553 972 2059 
L 3022 2063 
z
" transform="scale(0.015625)"/>
        <path id="DejaVuSans-70" d="M 1159 525 
L 1159 -1331 
L 581 -1331 
L 581 3500 
L 1159 3500 
L 1159 2969 
Q 1341 3281 1617 3432 
Q 1894 3584 2278 3584 
Q 2916 3584 3314 3078 
Q 3713 2572 3713 1747 
Q 3713 922 3314 415 
Q 2916 -91 2278 -91 
Q 1894 -91 1617 61 
Q 1341 213 1159 525 
z
M 3116 1747 
Q 3116 2381 2855 2742 
Q 2594 3103 2138 3103 
Q 1681 3103 1420 2742 
Q 1159 2381 1159 1747 
Q 1159 1113 1420 752 
Q 1681 391 2138 391 
Q 2594 391 2855 752 
Q 3116 1113 3116 1747 
z
" transform="scale(0.015625)"/>
        <path id="DejaVuSans-6c" d="M 603 4863 
L 1178 4863 
L 1178 0 
L 603 0 
L 603 4863 
z
" transform="scale(0.015625)"/>
        <path id="DejaVuSans-74" d="M 1172 4494 
L 1172 3500 
L 2356 3500 
L 2356 3053 
L 1172 3053 
L 1172 1153 
Q 1172 725 1289 603 
Q 1406 481 1766 481 
L 2356 481 
L 2356 0 
L 1766 0 
Q 1100 0 847 248 
Q 594 497 594 1153 
L 594 3053 
L 172 3053 
L 172 3500 
L 594 3500 
L 594 4494 
L 1172 4494 
z
" transform="scale(0.015625)"/>
        <path id="DejaVuSans-64" d="M 2906 2969 
L 2906 4863 
L 3481 4863 
L 3481 0 
L 2906 0 
L 2906 525 
Q 2725 213 2448 61 
Q 2172 -91 1784 -91 
Q 1150 -91 751 415 
Q 353 922 353 1747 
Q 353 2572 751 3078 
Q 1150 3584 1784 3584 
Q 2172 3584 2448 3432 
Q 2725 3281 2906 2969 
z
M 947 1747 
Q 947 1113 1208 752 
Q 1469 391 1925 391 
Q 2381 391 2643 752 
Q 2906 1113 2906 1747 
Q 2906 2381 2643 2742 
Q 2381 3103 1925 3103 
Q 1469 3103 1208 2742 
Q 947 2381 947 1747 
z
" transform="scale(0.015625)"/>
       </defs>
       <use xlink:href="#DejaVuSans-44"/>
       <use xlink:href="#DejaVuSans-65" x="77.001953"/>
       <use xlink:href="#DejaVuSans-70" x="138.525391"/>
       <use xlink:href="#DejaVuSans-6c" x="202.001953"/>
       <use xlink:href="#DejaVuSans-65" x="229.785156"/>
       <use xlink:href="#DejaVuSans-74" x="291.308594"/>
       <use xlink:href="#DejaVuSans-65" x="330.517578"/>
       <use xlink:href="#DejaVuSans-64" x="392.041016"/>
      </g>
     </g>
    </g>
    <g id="xtick_2">
     <g id="line2d_2">
      <path d="M 92.815 118.08 
" style="fill: none; stroke: #000000; stroke-width: 1.2"/>
      <g>
       <use xlink:href="#m33db80a1f4" x="92.815" y="118.08" style="stroke: #333333"/>
      </g>
     </g>
     <g id="text_2">
      <!-- Neutral -->
      <g style="fill: #4d4d4d" transform="translate(83.93639 148.207421) rotate(-45) scale(0.08 -0.08)">
       <defs>
        <path id="DejaVuSans-4e" d="M 628 4666 
L 1478 4666 
L 3547 763 
L 3547 4666 
L 4159 4666 
L 4159 0 
L 3309 0 
L 1241 3903 
L 1241 0 
L 628 0 
L 628 4666 
z
" transform="scale(0.015625)"/>
        <path id="DejaVuSans-75" d="M 544 1381 
L 544 3500 
L 1119 3500 
L 1119 1403 
Q 1119 906 1312 657 
Q 1506 409 1894 409 
Q 2359 409 2629 706 
Q 2900 1003 2900 1516 
L 2900 3500 
L 3475 3500 
L 3475 0 
L 2900 0 
L 2900 538 
Q 2691 219 2414 64 
Q 2138 -91 1772 -91 
Q 1169 -91 856 284 
Q 544 659 544 1381 
z
M 1991 3584 
L 1991 3584 
z
" transform="scale(0.015625)"/>
        <path id="DejaVuSans-72" d="M 2631 2963 
Q 2534 3019 2420 3045 
Q 2306 3072 2169 3072 
Q 1681 3072 1420 2755 
Q 1159 2438 1159 1844 
L 1159 0 
L 581 0 
L 581 3500 
L 1159 3500 
L 1159 2956 
Q 1341 3275 1631 3429 
Q 1922 3584 2338 3584 
Q 2397 3584 2469 3576 
Q 2541 3569 2628 3553 
L 2631 2963 
z
" transform="scale(0.015625)"/>
        <path id="DejaVuSans-61" d="M 2194 1759 
Q 1497 1759 1228 1600 
Q 959 1441 959 1056 
Q 959 750 1161 570 
Q 1363 391 1709 391 
Q 2188 391 2477 730 
Q 2766 1069 2766 1631 
L 2766 1759 
L 2194 1759 
z
M 3341 1997 
L 3341 0 
L 2766 0 
L 2766 531 
Q 2569 213 2275 61 
Q 1981 -91 1556 -91 
Q 1019 -91 701 211 
Q 384 513 384 1019 
Q 384 1609 779 1909 
Q 1175 2209 1959 2209 
L 2766 2209 
L 2766 2266 
Q 2766 2663 2505 2880 
Q 2244 3097 1772 3097 
Q 1472 3097 1187 3025 
Q 903 2953 641 2809 
L 641 3341 
Q 956 3463 1253 3523 
Q 1550 3584 1831 3584 
Q 2591 3584 2966 3190 
Q 3341 2797 3341 1997 
z
" transform="scale(0.015625)"/>
       </defs>
       <use xlink:href="#DejaVuSans-4e"/>
       <use xlink:href="#DejaVuSans-65" x="74.804688"/>
       <use xlink:href="#DejaVuSans-75" x="136.328125"/>
       <use xlink:href="#DejaVuSans-74" x="199.707031"/>
       <use xlink:href="#DejaVuSans-72" x="238.916016"/>
       <use xlink:href="#DejaVuSans-61" x="280.029297"/>
       <use xlink:href="#DejaVuSans-6c" x="341.308594"/>
      </g>
     </g>
    </g>
    <g id="xtick_3">
     <g id="line2d_3">
      <path d="M 127.69 118.08 
" style="fill: none; stroke: #000000; stroke-width: 1.2"/>
      <g>
       <use xlink:href="#m33db80a1f4" x="127.69" y="118.08" style="stroke: #333333"/>
      </g>
     </g>
     <g id="text_3">
      <!-- Enriched -->
      <g style="fill: #4d4d4d" transform="translate(116.839005 152.152193) rotate(-45) scale(0.08 -0.08)">
       <defs>
        <path id="DejaVuSans-45" d="M 628 4666 
L 3578 4666 
L 3578 4134 
L 1259 4134 
L 1259 2753 
L 3481 2753 
L 3481 2222 
L 1259 2222 
L 1259 531 
L 3634 531 
L 3634 0 
L 628 0 
L 628 4666 
z
" transform="scale(0.015625)"/>
        <path id="DejaVuSans-6e" d="M 3513 2113 
L 3513 0 
L 2938 0 
L 2938 2094 
Q 2938 2591 2744 2837 
Q 2550 3084 2163 3084 
Q 1697 3084 1428 2787 
Q 1159 2491 1159 1978 
L 1159 0 
L 581 0 
L 581 3500 
L 1159 3500 
L 1159 2956 
Q 1366 3272 1645 3428 
Q 1925 3584 2291 3584 
Q 2894 3584 3203 3211 
Q 3513 2838 3513 2113 
z
" transform="scale(0.015625)"/>
        <path id="DejaVuSans-69" d="M 603 3500 
L 1178 3500 
L 1178 0 
L 603 0 
L 603 3500 
z
M 603 4863 
L 1178 4863 
L 1178 4134 
L 603 4134 
L 603 4863 
z
" transform="scale(0.015625)"/>
        <path id="DejaVuSans-63" d="M 3122 3366 
L 3122 2828 
Q 2878 2963 2633 3030 
Q 2388 3097 2138 3097 
Q 1578 3097 1268 2742 
Q 959 2388 959 1747 
Q 959 1106 1268 751 
Q 1578 397 2138 397 
Q 2388 397 2633 464 
Q 2878 531 3122 666 
L 3122 134 
Q 2881 22 2623 -34 
Q 2366 -91 2075 -91 
Q 1284 -91 818 406 
Q 353 903 353 1747 
Q 353 2603 823 3093 
Q 1294 3584 2113 3584 
Q 2378 3584 2631 3529 
Q 2884 3475 3122 3366 
z
" transform="scale(0.015625)"/>
        <path id="DejaVuSans-68" d="M 3513 2113 
L 3513 0 
L 2938 0 
L 2938 2094 
Q 2938 2591 2744 2837 
Q 2550 3084 2163 3084 
Q 1697 3084 1428 2787 
Q 1159 2491 1159 1978 
L 1159 0 
L 581 0 
L 581 4863 
L 1159 4863 
L 1159 2956 
Q 1366 3272 1645 3428 
Q 1925 3584 2291 3584 
Q 2894 3584 3203 3211 
Q 3513 2838 3513 2113 
z
" transform="scale(0.015625)"/>
       </defs>
       <use xlink:href="#DejaVuSans-45"/>
       <use xlink:href="#DejaVuSans-6e" x="63.183594"/>
       <use xlink:href="#DejaVuSans-72" x="126.5625"/>
       <use xlink:href="#DejaVuSans-69" x="167.675781"/>
       <use xlink:href="#DejaVuSans-63" x="195.458984"/>
       <use xlink:href="#DejaVuSans-68" x="250.439453"/>
       <use xlink:href="#DejaVuSans-65" x="313.818359"/>
       <use xlink:href="#DejaVuSans-64" x="375.341797"/>
      </g>
     </g>
    </g>
   </g>
   <g id="matplotlib.axis_2">
    <g id="ytick_1">
     <g id="line2d_4">
      <path d="M 37.015 107.617623 
" style="fill: none; stroke: #000000; stroke-width: 1.2"/>
      <defs>
       <path id="mab8e9b209a" d="M 0 0 
L -2.75 0 
" style="stroke: #333333"/>
      </defs>
      <g>
       <use xlink:href="#mab8e9b209a" x="37.015" y="107.617623" style="stroke: #333333"/>
      </g>
     </g>
     <g id="text_4">
      <!-- 0.4 -->
      <g style="fill: #4d4d4d" transform="translate(19.3425 109.825123) scale(0.08 -0.08)">
       <defs>
        <path id="DejaVuSans-30" d="M 2034 4250 
Q 1547 4250 1301 3770 
Q 1056 3291 1056 2328 
Q 1056 1369 1301 889 
Q 1547 409 2034 409 
Q 2525 409 2770 889 
Q 3016 1369 3016 2328 
Q 3016 3291 2770 3770 
Q 2525 4250 2034 4250 
z
M 2034 4750 
Q 2819 4750 3233 4129 
Q 3647 3509 3647 2328 
Q 3647 1150 3233 529 
Q 2819 -91 2034 -91 
Q 1250 -91 836 529 
Q 422 1150 422 2328 
Q 422 3509 836 4129 
Q 1250 4750 2034 4750 
z
" transform="scale(0.015625)"/>
        <path id="DejaVuSans-2e" d="M 684 794 
L 1344 794 
L 1344 0 
L 684 0 
L 684 794 
z
" transform="scale(0.015625)"/>
        <path id="DejaVuSans-34" d="M 2419 4116 
L 825 1625 
L 2419 1625 
L 2419 4116 
z
M 2253 4666 
L 3047 4666 
L 3047 1625 
L 3713 1625 
L 3713 1100 
L 3047 1100 
L 3047 0 
L 2419 0 
L 2419 1100 
L 313 1100 
L 313 1709 
L 2253 4666 
z
" transform="scale(0.015625)"/>
       </defs>
       <use xlink:href="#DejaVuSans-30"/>
       <use xlink:href="#DejaVuSans-2e" x="63.623047"/>
       <use xlink:href="#DejaVuSans-34" x="95.410156"/>
      </g>
     </g>
    </g>
    <g id="ytick_2">
     <g id="line2d_5">
      <path d="M 37.015 84.589722 
" style="fill: none; stroke: #000000; stroke-width: 1.2"/>
      <g>
       <use xlink:href="#mab8e9b209a" x="37.015" y="84.589722" style="stroke: #333333"/>
      </g>
     </g>
     <g id="text_5">
      <!-- 0.5 -->
      <g style="fill: #4d4d4d" transform="translate(19.3425 86.797222) scale(0.08 -0.08)">
       <defs>
        <path id="DejaVuSans-35" d="M 691 4666 
L 3169 4666 
L 3169 4134 
L 1269 4134 
L 1269 2991 
Q 1406 3038 1543 3061 
Q 1681 3084 1819 3084 
Q 2600 3084 3056 2656 
Q 3513 2228 3513 1497 
Q 3513 744 3044 326 
Q 2575 -91 1722 -91 
Q 1428 -91 1123 -41 
Q 819 9 494 109 
L 494 744 
Q 775 591 1075 516 
Q 1375 441 1709 441 
Q 2250 441 2565 725 
Q 2881 1009 2881 1497 
Q 2881 1984 2565 2268 
Q 2250 2553 1709 2553 
Q 1456 2553 1204 2497 
Q 953 2441 691 2322 
L 691 4666 
z
" transform="scale(0.015625)"/>
       </defs>
       <use xlink:href="#DejaVuSans-30"/>
       <use xlink:href="#DejaVuSans-2e" x="63.623047"/>
       <use xlink:href="#DejaVuSans-35" x="95.410156"/>
      </g>
     </g>
    </g>
    <g id="ytick_3">
     <g id="line2d_6">
      <path d="M 37.015 61.561821 
" style="fill: none; stroke: #000000; stroke-width: 1.2"/>
      <g>
       <use xlink:href="#mab8e9b209a" x="37.015" y="61.561821" style="stroke: #333333"/>
      </g>
     </g>
     <g id="text_6">
      <!-- 0.6 -->
      <g style="fill: #4d4d4d" transform="translate(19.3425 63.769321) scale(0.08 -0.08)">
       <defs>
        <path id="DejaVuSans-36" d="M 2113 2584 
Q 1688 2584 1439 2293 
Q 1191 2003 1191 1497 
Q 1191 994 1439 701 
Q 1688 409 2113 409 
Q 2538 409 2786 701 
Q 3034 994 3034 1497 
Q 3034 2003 2786 2293 
Q 2538 2584 2113 2584 
z
M 3366 4563 
L 3366 3988 
Q 3128 4100 2886 4159 
Q 2644 4219 2406 4219 
Q 1781 4219 1451 3797 
Q 1122 3375 1075 2522 
Q 1259 2794 1537 2939 
Q 1816 3084 2150 3084 
Q 2853 3084 3261 2657 
Q 3669 2231 3669 1497 
Q 3669 778 3244 343 
Q 2819 -91 2113 -91 
Q 1303 -91 875 529 
Q 447 1150 447 2328 
Q 447 3434 972 4092 
Q 1497 4750 2381 4750 
Q 2619 4750 2861 4703 
Q 3103 4656 3366 4563 
z
" transform="scale(0.015625)"/>
       </defs>
       <use xlink:href="#DejaVuSans-30"/>
       <use xlink:href="#DejaVuSans-2e" x="63.623047"/>
       <use xlink:href="#DejaVuSans-36" x="95.410156"/>
      </g>
     </g>
    </g>
    <g id="ytick_4">
     <g id="line2d_7">
      <path d="M 37.015 38.533919 
" style="fill: none; stroke: #000000; stroke-width: 1.2"/>
      <g>
       <use xlink:href="#mab8e9b209a" x="37.015" y="38.533919" style="stroke: #333333"/>
      </g>
     </g>
     <g id="text_7">
      <!-- 0.7 -->
      <g style="fill: #4d4d4d" transform="translate(19.3425 40.741419) scale(0.08 -0.08)">
       <defs>
        <path id="DejaVuSans-37" d="M 525 4666 
L 3525 4666 
L 3525 4397 
L 1831 0 
L 1172 0 
L 2766 4134 
L 525 4134 
L 525 4666 
z
" transform="scale(0.015625)"/>
       </defs>
       <use xlink:href="#DejaVuSans-30"/>
       <use xlink:href="#DejaVuSans-2e" x="63.623047"/>
       <use xlink:href="#DejaVuSans-37" x="95.410156"/>
      </g>
     </g>
    </g>
    <g id="ytick_5">
     <g id="line2d_8">
      <path d="M 37.015 15.506018 
" style="fill: none; stroke: #000000; stroke-width: 1.2"/>
      <g>
       <use xlink:href="#mab8e9b209a" x="37.015" y="15.506018" style="stroke: #333333"/>
      </g>
     </g>
     <g id="text_8">
      <!-- 0.8 -->
      <g style="fill: #4d4d4d" transform="translate(19.3425 17.713518) scale(0.08 -0.08)">
       <defs>
        <path id="DejaVuSans-38" d="M 2034 2216 
Q 1584 2216 1326 1975 
Q 1069 1734 1069 1313 
Q 1069 891 1326 650 
Q 1584 409 2034 409 
Q 2484 409 2743 651 
Q 3003 894 3003 1313 
Q 3003 1734 2745 1975 
Q 2488 2216 2034 2216 
z
M 1403 2484 
Q 997 2584 770 2862 
Q 544 3141 544 3541 
Q 544 4100 942 4425 
Q 1341 4750 2034 4750 
Q 2731 4750 3128 4425 
Q 3525 4100 3525 3541 
Q 3525 3141 3298 2862 
Q 3072 2584 2669 2484 
Q 3125 2378 3379 2068 
Q 3634 1759 3634 1313 
Q 3634 634 3220 271 
Q 2806 -91 2034 -91 
Q 1263 -91 848 271 
Q 434 634 434 1313 
Q 434 1759 690 2068 
Q 947 2378 1403 2484 
z
M 1172 3481 
Q 1172 3119 1398 2916 
Q 1625 2713 2034 2713 
Q 2441 2713 2670 2916 
Q 2900 3119 2900 3481 
Q 2900 3844 2670 4047 
Q 2441 4250 2034 4250 
Q 1625 4250 1398 4047 
Q 1172 3844 1172 3481 
z
" transform="scale(0.015625)"/>
       </defs>
       <use xlink:href="#DejaVuSans-30"/>
       <use xlink:href="#DejaVuSans-2e" x="63.623047"/>
       <use xlink:href="#DejaVuSans-38" x="95.410156"/>
      </g>
     </g>
    </g>
    <g id="ytick_6"/>
    <g id="ytick_7"/>
    <g id="ytick_8"/>
    <g id="ytick_9"/>
    <g id="text_9">
     <!-- Learnability (AUROC) -->
     <g transform="translate(13.27875 104.138125) rotate(-90) scale(0.08 -0.08)">
      <defs>
       <path id="DejaVuSans-4c" d="M 628 4666 
L 1259 4666 
L 1259 531 
L 3531 531 
L 3531 0 
L 628 0 
L 628 4666 
z
" transform="scale(0.015625)"/>
       <path id="DejaVuSans-62" d="M 3116 1747 
Q 3116 2381 2855 2742 
Q 2594 3103 2138 3103 
Q 1681 3103 1420 2742 
Q 1159 2381 1159 1747 
Q 1159 1113 1420 752 
Q 1681 391 2138 391 
Q 2594 391 2855 752 
Q 3116 1113 3116 1747 
z
M 1159 2969 
Q 1341 3281 1617 3432 
Q 1894 3584 2278 3584 
Q 2916 3584 3314 3078 
Q 3713 2572 3713 1747 
Q 3713 922 3314 415 
Q 2916 -91 2278 -91 
Q 1894 -91 1617 61 
Q 1341 213 1159 525 
L 1159 0 
L 581 0 
L 581 4863 
L 1159 4863 
L 1159 2969 
z
" transform="scale(0.015625)"/>
       <path id="DejaVuSans-79" d="M 2059 -325 
Q 1816 -950 1584 -1140 
Q 1353 -1331 966 -1331 
L 506 -1331 
L 506 -850 
L 844 -850 
Q 1081 -850 1212 -737 
Q 1344 -625 1503 -206 
L 1606 56 
L 191 3500 
L 800 3500 
L 1894 763 
L 2988 3500 
L 3597 3500 
L 2059 -325 
z
" transform="scale(0.015625)"/>
       <path id="DejaVuSans-20" transform="scale(0.015625)"/>
       <path id="DejaVuSans-28" d="M 1984 4856 
Q 1566 4138 1362 3434 
Q 1159 2731 1159 2009 
Q 1159 1288 1364 580 
Q 1569 -128 1984 -844 
L 1484 -844 
Q 1016 -109 783 600 
Q 550 1309 550 2009 
Q 550 2706 781 3412 
Q 1013 4119 1484 4856 
L 1984 4856 
z
" transform="scale(0.015625)"/>
       <path id="DejaVuSans-41" d="M 2188 4044 
L 1331 1722 
L 3047 1722 
L 2188 4044 
z
M 1831 4666 
L 2547 4666 
L 4325 0 
L 3669 0 
L 3244 1197 
L 1141 1197 
L 716 0 
L 50 0 
L 1831 4666 
z
" transform="scale(0.015625)"/>
       <path id="DejaVuSans-55" d="M 556 4666 
L 1191 4666 
L 1191 1831 
Q 1191 1081 1462 751 
Q 1734 422 2344 422 
Q 2950 422 3222 751 
Q 3494 1081 3494 1831 
L 3494 4666 
L 4128 4666 
L 4128 1753 
Q 4128 841 3676 375 
Q 3225 -91 2344 -91 
Q 1459 -91 1007 375 
Q 556 841 556 1753 
L 556 4666 
z
" transform="scale(0.015625)"/>
       <path id="DejaVuSans-52" d="M 2841 2188 
Q 3044 2119 3236 1894 
Q 3428 1669 3622 1275 
L 4263 0 
L 3584 0 
L 2988 1197 
Q 2756 1666 2539 1819 
Q 2322 1972 1947 1972 
L 1259 1972 
L 1259 0 
L 628 0 
L 628 4666 
L 2053 4666 
Q 2853 4666 3247 4331 
Q 3641 3997 3641 3322 
Q 3641 2881 3436 2590 
Q 3231 2300 2841 2188 
z
M 1259 4147 
L 1259 2491 
L 2053 2491 
Q 2509 2491 2742 2702 
Q 2975 2913 2975 3322 
Q 2975 3731 2742 3939 
Q 2509 4147 2053 4147 
L 1259 4147 
z
" transform="scale(0.015625)"/>
       <path id="DejaVuSans-4f" d="M 2522 4238 
Q 1834 4238 1429 3725 
Q 1025 3213 1025 2328 
Q 1025 1447 1429 934 
Q 1834 422 2522 422 
Q 3209 422 3611 934 
Q 4013 1447 4013 2328 
Q 4013 3213 3611 3725 
Q 3209 4238 2522 4238 
z
M 2522 4750 
Q 3503 4750 4090 4092 
Q 4678 3434 4678 2328 
Q 4678 1225 4090 567 
Q 3503 -91 2522 -91 
Q 1538 -91 948 565 
Q 359 1222 359 2328 
Q 359 3434 948 4092 
Q 1538 4750 2522 4750 
z
" transform="scale(0.015625)"/>
       <path id="DejaVuSans-43" d="M 4122 4306 
L 4122 3641 
Q 3803 3938 3442 4084 
Q 3081 4231 2675 4231 
Q 1875 4231 1450 3742 
Q 1025 3253 1025 2328 
Q 1025 1406 1450 917 
Q 1875 428 2675 428 
Q 3081 428 3442 575 
Q 3803 722 4122 1019 
L 4122 359 
Q 3791 134 3420 21 
Q 3050 -91 2638 -91 
Q 1578 -91 968 557 
Q 359 1206 359 2328 
Q 359 3453 968 4101 
Q 1578 4750 2638 4750 
Q 3056 4750 3426 4639 
Q 3797 4528 4122 4306 
z
" transform="scale(0.015625)"/>
       <path id="DejaVuSans-29" d="M 513 4856 
L 1013 4856 
Q 1481 4119 1714 3412 
Q 1947 2706 1947 2009 
Q 1947 1309 1714 600 
Q 1481 -109 1013 -844 
L 513 -844 
Q 928 -128 1133 580 
Q 1338 1288 1338 2009 
Q 1338 2731 1133 3434 
Q 928 4138 513 4856 
z
" transform="scale(0.015625)"/>
      </defs>
      <use xlink:href="#DejaVuSans-4c"/>
      <use xlink:href="#DejaVuSans-65" x="53.962891"/>
      <use xlink:href="#DejaVuSans-61" x="115.486328"/>
      <use xlink:href="#DejaVuSans-72" x="176.765625"/>
      <use xlink:href="#DejaVuSans-6e" x="216.128906"/>
      <use xlink:href="#DejaVuSans-61" x="279.507812"/>
      <use xlink:href="#DejaVuSans-62" x="340.787109"/>
      <use xlink:href="#DejaVuSans-69" x="404.263672"/>
      <use xlink:href="#DejaVuSans-6c" x="432.046875"/>
      <use xlink:href="#DejaVuSans-69" x="459.830078"/>
      <use xlink:href="#DejaVuSans-74" x="487.613281"/>
      <use xlink:href="#DejaVuSans-79" x="526.822266"/>
      <use xlink:href="#DejaVuSans-20" x="586.001953"/>
      <use xlink:href="#DejaVuSans-28" x="617.789062"/>
      <use xlink:href="#DejaVuSans-41" x="656.802734"/>
      <use xlink:href="#DejaVuSans-55" x="725.210938"/>
      <use xlink:href="#DejaVuSans-52" x="798.404297"/>
      <use xlink:href="#DejaVuSans-4f" x="867.886719"/>
      <use xlink:href="#DejaVuSans-43" x="946.597656"/>
      <use xlink:href="#DejaVuSans-29" x="1016.421875"/>
     </g>
    </g>
   </g>
   <g id="PathCollection_1">
    <path d="M 51.400937 96.216526 
C 51.870998 96.216526 52.321869 96.029769 52.654252 95.697387 
C 52.986634 95.365004 53.173391 94.914133 53.173391 94.444073 
C 53.173391 93.974012 52.986634 93.523141 52.654252 93.190758 
C 52.321869 92.858376 51.870998 92.671619 51.400937 92.671619 
C 50.930877 92.671619 50.480006 92.858376 50.147623 93.190758 
C 49.815241 93.523141 49.628484 93.974012 49.628484 94.444073 
C 49.628484 94.914133 49.815241 95.365004 50.147623 95.697387 
C 50.480006 96.029769 50.930877 96.216526 51.400937 96.216526 
L 51.400937 96.216526 
z
" clip-path="url(#p37461ce368)" style="fill: none"/>
    <path d="M 51.400937 96.969302 
C 51.870998 96.969302 52.321869 96.782545 52.654252 96.450162 
C 52.986634 96.117779 53.173391 95.666908 53.173391 95.196848 
C 53.173391 94.726788 52.986634 94.275917 52.654252 93.943534 
C 52.321869 93.611151 51.870998 93.424394 51.400937 93.424394 
C 50.930877 93.424394 50.480006 93.611151 50.147623 93.943534 
C 49.815241 94.275917 49.628484 94.726788 49.628484 95.196848 
C 49.628484 95.666908 49.815241 96.117779 50.147623 96.450162 
C 50.480006 96.782545 50.930877 96.969302 51.400937 96.969302 
L 51.400937 96.969302 
z
" clip-path="url(#p37461ce368)" style="fill: none"/>
    <path d="M 51.400937 30.411765 
C 51.870998 30.411765 52.321869 30.225008 52.654252 29.892626 
C 52.986634 29.560243 53.173391 29.109372 53.173391 28.639311 
C 53.173391 28.169251 52.986634 27.71838 52.654252 27.385997 
C 52.321869 27.053614 51.870998 26.866858 51.400937 26.866858 
C 50.930877 26.866858 50.480006 27.053614 50.147623 27.385997 
C 49.815241 27.71838 49.628484 28.169251 49.628484 28.639311 
C 49.628484 29.109372 49.815241 29.560243 50.147623 29.892626 
C 50.480006 30.225008 50.930877 30.411765 51.400937 30.411765 
L 51.400937 30.411765 
z
" clip-path="url(#p37461ce368)" style="fill: none"/>
    <path d="M 51.400937 95.052465 
C 51.870998 95.052465 52.321869 94.865708 52.654252 94.533326 
C 52.986634 94.200943 53.173391 93.750072 53.173391 93.280011 
C 53.173391 92.809951 52.986634 92.35908 52.654252 92.026697 
C 52.321869 91.694314 51.870998 91.507558 51.400937 91.507558 
C 50.930877 91.507558 50.480006 91.694314 50.147623 92.026697 
C 49.815241 92.35908 49.628484 92.809951 49.628484 93.280011 
C 49.628484 93.750072 49.815241 94.200943 50.147623 94.533326 
C 50.480006 94.865708 50.930877 95.052465 51.400937 95.052465 
L 51.400937 95.052465 
z
" clip-path="url(#p37461ce368)" style="fill: none"/>
    <path d="M 51.400937 33.885191 
C 51.870998 33.885191 52.321869 33.698434 52.654252 33.366051 
C 52.986634 33.033669 53.173391 32.582797 53.173391 32.112737 
C 53.173391 31.642677 52.986634 31.191806 52.654252 30.859423 
C 52.321869 30.52704 51.870998 30.340283 51.400937 30.340283 
C 50.930877 30.340283 50.480006 30.52704 50.147623 30.859423 
C 49.815241 31.191806 49.628484 31.642677 49.628484 32.112737 
C 49.628484 32.582797 49.815241 33.033669 50.147623 33.366051 
C 50.480006 33.698434 50.930877 33.885191 51.400937 33.885191 
L 51.400937 33.885191 
z
" clip-path="url(#p37461ce368)" style="fill: none"/>
    <path d="M 51.400937 96.523918 
C 51.870998 96.523918 52.321869 96.337161 52.654252 96.004778 
C 52.986634 95.672396 53.173391 95.221525 53.173391 94.751464 
C 53.173391 94.281404 52.986634 93.830533 52.654252 93.49815 
C 52.321869 93.165767 51.870998 92.97901 51.400937 92.97901 
C 50.930877 92.97901 50.480006 93.165767 50.147623 93.49815 
C 49.815241 93.830533 49.628484 94.281404 49.628484 94.751464 
C 49.628484 95.221525 49.815241 95.672396 50.147623 96.004778 
C 50.480006 96.337161 50.930877 96.523918 51.400937 96.523918 
L 51.400937 96.523918 
z
" clip-path="url(#p37461ce368)" style="fill: none"/>
    <path d="M 51.400937 105.609322 
C 51.870998 105.609322 52.321869 105.422565 52.654252 105.090182 
C 52.986634 104.757799 53.173391 104.306928 53.173391 103.836868 
C 53.173391 103.366808 52.986634 102.915937 52.654252 102.583554 
C 52.321869 102.251171 51.870998 102.064414 51.400937 102.064414 
C 50.930877 102.064414 50.480006 102.251171 50.147623 102.583554 
C 49.815241 102.915937 49.628484 103.366808 49.628484 103.836868 
C 49.628484 104.306928 49.815241 104.757799 50.147623 105.090182 
C 50.480006 105.422565 50.930877 105.609322 51.400937 105.609322 
L 51.400937 105.609322 
z
" clip-path="url(#p37461ce368)" style="fill: none"/>
    <path d="M 51.400937 105.03088 
C 51.870998 105.03088 52.321869 104.844123 52.654252 104.51174 
C 52.986634 104.179357 53.173391 103.728486 53.173391 103.258426 
C 53.173391 102.788366 52.986634 102.337495 52.654252 102.005112 
C 52.321869 101.672729 51.870998 101.485972 51.400937 101.485972 
C 50.930877 101.485972 50.480006 101.672729 50.147623 102.005112 
C 49.815241 102.337495 49.628484 102.788366 49.628484 103.258426 
C 49.628484 103.728486 49.815241 104.179357 50.147623 104.51174 
C 50.480006 104.844123 50.930877 105.03088 51.400937 105.03088 
L 51.400937 105.03088 
z
" clip-path="url(#p37461ce368)" style="fill: none"/>
    <path d="M 51.400937 98.115042 
C 51.870998 98.115042 52.321869 97.928285 52.654252 97.595902 
C 52.986634 97.263519 53.173391 96.812648 53.173391 96.342588 
C 53.173391 95.872528 52.986634 95.421656 52.654252 95.089274 
C 52.321869 94.756891 51.870998 94.570134 51.400937 94.570134 
C 50.930877 94.570134 50.480006 94.756891 50.147623 95.089274 
C 49.815241 95.421656 49.628484 95.872528 49.628484 96.342588 
C 49.628484 96.812648 49.815241 97.263519 50.147623 97.595902 
C 50.480006 97.928285 50.930877 98.115042 51.400937 98.115042 
L 51.400937 98.115042 
z
" clip-path="url(#p37461ce368)" style="fill: none"/>
    <path d="M 51.400937 95.441503 
C 51.870998 95.441503 52.321869 95.254747 52.654252 94.922364 
C 52.986634 94.589981 53.173391 94.13911 53.173391 93.66905 
C 53.173391 93.198989 52.986634 92.748118 52.654252 92.415736 
C 52.321869 92.083353 51.870998 91.896596 51.400937 91.896596 
C 50.930877 91.896596 50.480006 92.083353 50.147623 92.415736 
C 49.815241 92.748118 49.628484 93.198989 49.628484 93.66905 
C 49.628484 94.13911 49.815241 94.589981 50.147623 94.922364 
C 50.480006 95.254747 50.930877 95.441503 51.400937 95.441503 
L 51.400937 95.441503 
z
" clip-path="url(#p37461ce368)" style="fill: none"/>
   </g>
   <g id="LineCollection_1">
    <path d="M 51.400937 55.937462 
L 51.400937 34.151799 
" clip-path="url(#p37461ce368)" style="fill: none; stroke: #333333; stroke-width: 0.886227"/>
    <path d="M 51.400937 70.722696 
L 51.400937 92.75159 
" clip-path="url(#p37461ce368)" style="fill: none; stroke: #333333; stroke-width: 0.886227"/>
   </g>
   <g id="PolyCollection_1">
    <defs>
     <path id="m268bbb98f2" d="M 45.515781 -105.536935 
L 45.515781 -105.536935 
L 57.286094 -105.536935 
L 57.286094 -90.751701 
L 45.515781 -90.751701 
z
" style="stroke: #333333; stroke-width: 0.886227"/>
    </defs>
    <g clip-path="url(#p37461ce368)">
     <use xlink:href="#m268bbb98f2" x="0" y="161.474397" style="fill: #db5f57; stroke: #333333; stroke-width: 0.886227"/>
    </g>
   </g>
   <g id="LineCollection_2">
    <path d="M 45.515781 63.687515 
L 57.286094 63.687515 
" clip-path="url(#p37461ce368)" style="fill: none; stroke: #333333; stroke-width: 1.772454"/>
   </g>
   <g id="PathCollection_2">
    <path d="M 64.479062 73.192832 
C 64.949123 73.192832 65.399994 73.006075 65.732377 72.673692 
C 66.064759 72.341309 66.251516 71.890438 66.251516 71.420378 
C 66.251516 70.950318 66.064759 70.499447 65.732377 70.167064 
C 65.399994 69.834681 64.949123 69.647924 64.479062 69.647924 
C 64.009002 69.647924 63.558131 69.834681 63.225748 70.167064 
C 62.893366 70.499447 62.706609 70.950318 62.706609 71.420378 
C 62.706609 71.890438 62.893366 72.341309 63.225748 72.673692 
C 63.558131 73.006075 64.009002 73.192832 64.479062 73.192832 
L 64.479062 73.192832 
z
" clip-path="url(#p37461ce368)" style="fill: none"/>
    <path d="M 64.479062 14.816534 
C 64.949123 14.816534 65.399994 14.629777 65.732377 14.297395 
C 66.064759 13.965012 66.251516 13.514141 66.251516 13.04408 
C 66.251516 12.57402 66.064759 12.123149 65.732377 11.790766 
C 65.399994 11.458384 64.949123 11.271627 64.479062 11.271627 
C 64.009002 11.271627 63.558131 11.458384 63.225748 11.790766 
C 62.893366 12.123149 62.706609 12.57402 62.706609 13.04408 
C 62.706609 13.514141 62.893366 13.965012 63.225748 14.297395 
C 63.558131 14.629777 64.009002 14.816534 64.479062 14.816534 
L 64.479062 14.816534 
z
" clip-path="url(#p37461ce368)" style="fill: none"/>
    <path d="M 64.479062 69.734727 
C 64.949123 69.734727 65.399994 69.54797 65.732377 69.215588 
C 66.064759 68.883205 66.251516 68.432334 66.251516 67.962274 
C 66.251516 67.492213 66.064759 67.041342 65.732377 66.708959 
C 65.399994 66.376577 64.949123 66.18982 64.479062 66.18982 
C 64.009002 66.18982 63.558131 66.376577 63.225748 66.708959 
C 62.893366 67.041342 62.706609 67.492213 62.706609 67.962274 
C 62.706609 68.432334 62.893366 68.883205 63.225748 69.215588 
C 63.558131 69.54797 64.009002 69.734727 64.479062 69.734727 
L 64.479062 69.734727 
z
" clip-path="url(#p37461ce368)" style="fill: none"/>
    <path d="M 64.479062 69.825998 
C 64.949123 69.825998 65.399994 69.639241 65.732377 69.306858 
C 66.064759 68.974475 66.251516 68.523604 66.251516 68.053544 
C 66.251516 67.583484 66.064759 67.132612 65.732377 66.80023 
C 65.399994 66.467847 64.949123 66.28109 64.479062 66.28109 
C 64.009002 66.28109 63.558131 66.467847 63.225748 66.80023 
C 62.893366 67.132612 62.706609 67.583484 62.706609 68.053544 
C 62.706609 68.523604 62.893366 68.974475 63.225748 69.306858 
C 63.558131 69.639241 64.009002 69.825998 64.479062 69.825998 
L 64.479062 69.825998 
z
" clip-path="url(#p37461ce368)" style="fill: none"/>
    <path d="M 64.479062 69.261438 
C 64.949123 69.261438 65.399994 69.074681 65.732377 68.742298 
C 66.064759 68.409916 66.251516 67.959045 66.251516 67.488984 
C 66.251516 67.018924 66.064759 66.568053 65.732377 66.23567 
C 65.399994 65.903287 64.949123 65.71653 64.479062 65.71653 
C 64.009002 65.71653 63.558131 65.903287 63.225748 66.23567 
C 62.893366 66.568053 62.706609 67.018924 62.706609 67.488984 
C 62.706609 67.959045 62.893366 68.409916 63.225748 68.742298 
C 63.558131 69.074681 64.009002 69.261438 64.479062 69.261438 
L 64.479062 69.261438 
z
" clip-path="url(#p37461ce368)" style="fill: none"/>
   </g>
   <g id="LineCollection_3">
    <path d="M 64.479062 35.520864 
L 64.479062 16.658484 
" clip-path="url(#p37461ce368)" style="fill: none; stroke: #333333; stroke-width: 0.886227"/>
    <path d="M 64.479062 48.260395 
L 64.479062 67.308854 
" clip-path="url(#p37461ce368)" style="fill: none; stroke: #333333; stroke-width: 0.886227"/>
   </g>
   <g id="PolyCollection_2">
    <defs>
     <path id="m7cf90ad65d" d="M 58.593906 -125.953533 
L 58.593906 -125.953533 
L 70.364219 -125.953533 
L 70.364219 -113.214002 
L 58.593906 -113.214002 
z
" style="stroke: #333333; stroke-width: 0.886227"/>
    </defs>
    <g clip-path="url(#p37461ce368)">
     <use xlink:href="#m7cf90ad65d" x="0" y="161.474397" style="fill: #57d3db; stroke: #333333; stroke-width: 0.886227"/>
    </g>
   </g>
   <g id="LineCollection_4">
    <path d="M 58.593906 42.102518 
L 70.364219 42.102518 
" clip-path="url(#p37461ce368)" style="fill: none; stroke: #333333; stroke-width: 1.772454"/>
   </g>
   <g id="PathCollection_3">
    <path d="M 86.275937 60.644258 
C 86.745998 60.644258 87.196869 60.457502 87.529252 60.125119 
C 87.861634 59.792736 88.048391 59.341865 88.048391 58.871805 
C 88.048391 58.401744 87.861634 57.950873 87.529252 57.61849 
C 87.196869 57.286108 86.745998 57.099351 86.275937 57.099351 
C 85.805877 57.099351 85.355006 57.286108 85.022623 57.61849 
C 84.690241 57.950873 84.503484 58.401744 84.503484 58.871805 
C 84.503484 59.341865 84.690241 59.792736 85.022623 60.125119 
C 85.355006 60.457502 85.805877 60.644258 86.275937 60.644258 
L 86.275937 60.644258 
z
" clip-path="url(#p37461ce368)" style="fill: none"/>
    <path d="M 86.275937 55.869694 
C 86.745998 55.869694 87.196869 55.682937 87.529252 55.350554 
C 87.861634 55.018171 88.048391 54.5673 88.048391 54.09724 
C 88.048391 53.62718 87.861634 53.176308 87.529252 52.843926 
C 87.196869 52.511543 86.745998 52.324786 86.275937 52.324786 
C 85.805877 52.324786 85.355006 52.511543 85.022623 52.843926 
C 84.690241 53.176308 84.503484 53.62718 84.503484 54.09724 
C 84.503484 54.5673 84.690241 55.018171 85.022623 55.350554 
C 85.355006 55.682937 85.805877 55.869694 86.275937 55.869694 
L 86.275937 55.869694 
z
" clip-path="url(#p37461ce368)" style="fill: none"/>
    <path d="M 86.275937 60.348094 
C 86.745998 60.348094 87.196869 60.161337 87.529252 59.828954 
C 87.861634 59.496572 88.048391 59.045701 88.048391 58.57564 
C 88.048391 58.10558 87.861634 57.654709 87.529252 57.322326 
C 87.196869 56.989943 86.745998 56.803186 86.275937 56.803186 
C 85.805877 56.803186 85.355006 56.989943 85.022623 57.322326 
C 84.690241 57.654709 84.503484 58.10558 84.503484 58.57564 
C 84.503484 59.045701 84.690241 59.496572 85.022623 59.828954 
C 85.355006 60.161337 85.805877 60.348094 86.275937 60.348094 
L 86.275937 60.348094 
z
" clip-path="url(#p37461ce368)" style="fill: none"/>
    <path d="M 86.275937 61.012721 
C 86.745998 61.012721 87.196869 60.825965 87.529252 60.493582 
C 87.861634 60.161199 88.048391 59.710328 88.048391 59.240268 
C 88.048391 58.770207 87.861634 58.319336 87.529252 57.986953 
C 87.196869 57.654571 86.745998 57.467814 86.275937 57.467814 
C 85.805877 57.467814 85.355006 57.654571 85.022623 57.986953 
C 84.690241 58.319336 84.503484 58.770207 84.503484 59.240268 
C 84.503484 59.710328 84.690241 60.161199 85.022623 60.493582 
C 85.355006 60.825965 85.805877 61.012721 86.275937 61.012721 
L 86.275937 61.012721 
z
" clip-path="url(#p37461ce368)" style="fill: none"/>
    <path d="M 86.275937 55.989998 
C 86.745998 55.989998 87.196869 55.803241 87.529252 55.470858 
C 87.861634 55.138475 88.048391 54.687604 88.048391 54.217544 
C 88.048391 53.747484 87.861634 53.296613 87.529252 52.96423 
C 87.196869 52.631847 86.745998 52.44509 86.275937 52.44509 
C 85.805877 52.44509 85.355006 52.631847 85.022623 52.96423 
C 84.690241 53.296613 84.503484 53.747484 84.503484 54.217544 
C 84.503484 54.687604 84.690241 55.138475 85.022623 55.470858 
C 85.355006 55.803241 85.805877 55.989998 86.275937 55.989998 
L 86.275937 55.989998 
z
" clip-path="url(#p37461ce368)" style="fill: none"/>
    <path d="M 86.275937 114.812454 
C 86.745998 114.812454 87.196869 114.625697 87.529252 114.293314 
C 87.861634 113.960931 88.048391 113.51006 88.048391 113.04 
C 88.048391 112.56994 87.861634 112.119069 87.529252 111.786686 
C 87.196869 111.454303 86.745998 111.267546 86.275937 111.267546 
C 85.805877 111.267546 85.355006 111.454303 85.022623 111.786686 
C 84.690241 112.119069 84.503484 112.56994 84.503484 113.04 
C 84.503484 113.51006 84.690241 113.960931 85.022623 114.293314 
C 85.355006 114.625697 85.805877 114.812454 86.275937 114.812454 
L 86.275937 114.812454 
z
" clip-path="url(#p37461ce368)" style="fill: none"/>
    <path d="M 86.275937 113.284396 
C 86.745998 113.284396 87.196869 113.097639 87.529252 112.765256 
C 87.861634 112.432873 88.048391 111.982002 88.048391 111.511942 
C 88.048391 111.041882 87.861634 110.591011 87.529252 110.258628 
C 87.196869 109.926245 86.745998 109.739488 86.275937 109.739488 
C 85.805877 109.739488 85.355006 109.926245 85.022623 110.258628 
C 84.690241 110.591011 84.503484 111.041882 84.503484 111.511942 
C 84.503484 111.982002 84.690241 112.432873 85.022623 112.765256 
C 85.355006 113.097639 85.805877 113.284396 86.275937 113.284396 
L 86.275937 113.284396 
z
" clip-path="url(#p37461ce368)" style="fill: none"/>
    <path d="M 86.275937 52.225944 
C 86.745998 52.225944 87.196869 52.039187 87.529252 51.706804 
C 87.861634 51.374421 88.048391 50.92355 88.048391 50.45349 
C 88.048391 49.983429 87.861634 49.532558 87.529252 49.200176 
C 87.196869 48.867793 86.745998 48.681036 86.275937 48.681036 
C 85.805877 48.681036 85.355006 48.867793 85.022623 49.200176 
C 84.690241 49.532558 84.503484 49.983429 84.503484 50.45349 
C 84.503484 50.92355 84.690241 51.374421 85.022623 51.706804 
C 85.355006 52.039187 85.805877 52.225944 86.275937 52.225944 
L 86.275937 52.225944 
z
" clip-path="url(#p37461ce368)" style="fill: none"/>
    <path d="M 86.275937 60.176923 
C 86.745998 60.176923 87.196869 59.990166 87.529252 59.657784 
C 87.861634 59.325401 88.048391 58.87453 88.048391 58.40447 
C 88.048391 57.934409 87.861634 57.483538 87.529252 57.151155 
C 87.196869 56.818773 86.745998 56.632016 86.275937 56.632016 
C 85.805877 56.632016 85.355006 56.818773 85.022623 57.151155 
C 84.690241 57.483538 84.503484 57.934409 84.503484 58.40447 
C 84.503484 58.87453 84.690241 59.325401 85.022623 59.657784 
C 85.355006 59.990166 85.805877 60.176923 86.275937 60.176923 
L 86.275937 60.176923 
z
" clip-path="url(#p37461ce368)" style="fill: none"/>
    <path d="M 86.275937 54.432292 
C 86.745998 54.432292 87.196869 54.245535 87.529252 53.913152 
C 87.861634 53.58077 88.048391 53.129899 88.048391 52.659838 
C 88.048391 52.189778 87.861634 51.738907 87.529252 51.406524 
C 87.196869 51.074141 86.745998 50.887384 86.275937 50.887384 
C 85.805877 50.887384 85.355006 51.074141 85.022623 51.406524 
C 84.690241 51.738907 84.503484 52.189778 84.503484 52.659838 
C 84.503484 53.129899 84.690241 53.58077 85.022623 53.913152 
C 85.355006 54.245535 85.805877 54.432292 86.275937 54.432292 
L 86.275937 54.432292 
z
" clip-path="url(#p37461ce368)" style="fill: none"/>
    <path d="M 86.275937 57.436742 
C 86.745998 57.436742 87.196869 57.249985 87.529252 56.917602 
C 87.861634 56.585219 88.048391 56.134348 88.048391 55.664288 
C 88.048391 55.194228 87.861634 54.743357 87.529252 54.410974 
C 87.196869 54.078591 86.745998 53.891834 86.275937 53.891834 
C 85.805877 53.891834 85.355006 54.078591 85.022623 54.410974 
C 84.690241 54.743357 84.503484 55.194228 84.503484 55.664288 
C 84.503484 56.134348 84.690241 56.585219 85.022623 56.917602 
C 85.355006 57.249985 85.805877 57.436742 86.275937 57.436742 
L 86.275937 57.436742 
z
" clip-path="url(#p37461ce368)" style="fill: none"/>
   </g>
   <g id="LineCollection_5">
    <path d="M 86.275937 78.754359 
L 86.275937 59.703609 
" clip-path="url(#p37461ce368)" style="fill: none; stroke: #333333; stroke-width: 0.886227"/>
    <path d="M 86.275937 91.646647 
L 86.275937 108.763768 
" clip-path="url(#p37461ce368)" style="fill: none; stroke: #333333; stroke-width: 0.886227"/>
   </g>
   <g id="PolyCollection_3">
    <defs>
     <path id="m7e89b72d1c" d="M 80.390781 -82.720038 
L 80.390781 -82.720038 
L 92.161094 -82.720038 
L 92.161094 -69.82775 
L 80.390781 -69.82775 
z
" style="stroke: #333333; stroke-width: 0.886227"/>
    </defs>
    <g clip-path="url(#p37461ce368)">
     <use xlink:href="#m7e89b72d1c" x="0" y="161.474397" style="fill: #db5f57; stroke: #333333; stroke-width: 0.886227"/>
    </g>
   </g>
   <g id="LineCollection_6">
    <path d="M 80.390781 85.370997 
L 92.161094 85.370997 
" clip-path="url(#p37461ce368)" style="fill: none; stroke: #333333; stroke-width: 1.772454"/>
   </g>
   <g id="PathCollection_4">
    <path d="M 99.354062 60.909434 
C 99.824123 60.909434 100.274994 60.722677 100.607377 60.390294 
C 100.939759 60.057912 101.126516 59.60704 101.126516 59.13698 
C 101.126516 58.66692 100.939759 58.216049 100.607377 57.883666 
C 100.274994 57.551283 99.824123 57.364526 99.354062 57.364526 
C 98.884002 57.364526 98.433131 57.551283 98.100748 57.883666 
C 97.768366 58.216049 97.581609 58.66692 97.581609 59.13698 
C 97.581609 59.60704 97.768366 60.057912 98.100748 60.390294 
C 98.433131 60.722677 98.884002 60.909434 99.354062 60.909434 
L 99.354062 60.909434 
z
" clip-path="url(#p37461ce368)" style="fill: none"/>
    <path d="M 99.354062 56.920292 
C 99.824123 56.920292 100.274994 56.733535 100.607377 56.401152 
C 100.939759 56.068769 101.126516 55.617898 101.126516 55.147838 
C 101.126516 54.677778 100.939759 54.226906 100.607377 53.894524 
C 100.274994 53.562141 99.824123 53.375384 99.354062 53.375384 
C 98.884002 53.375384 98.433131 53.562141 98.100748 53.894524 
C 97.768366 54.226906 97.581609 54.677778 97.581609 55.147838 
C 97.581609 55.617898 97.768366 56.068769 98.100748 56.401152 
C 98.433131 56.733535 98.884002 56.920292 99.354062 56.920292 
L 99.354062 56.920292 
z
" clip-path="url(#p37461ce368)" style="fill: none"/>
    <path d="M 99.354062 55.849521 
C 99.824123 55.849521 100.274994 55.662764 100.607377 55.330382 
C 100.939759 54.997999 101.126516 54.547128 101.126516 54.077067 
C 101.126516 53.607007 100.939759 53.156136 100.607377 52.823753 
C 100.274994 52.491371 99.824123 52.304614 99.354062 52.304614 
C 98.884002 52.304614 98.433131 52.491371 98.100748 52.823753 
C 97.768366 53.156136 97.581609 53.607007 97.581609 54.077067 
C 97.581609 54.547128 97.768366 54.997999 98.100748 55.330382 
C 98.433131 55.662764 98.884002 55.849521 99.354062 55.849521 
L 99.354062 55.849521 
z
" clip-path="url(#p37461ce368)" style="fill: none"/>
    <path d="M 99.354062 52.383481 
C 99.824123 52.383481 100.274994 52.196724 100.607377 51.864341 
C 100.939759 51.531958 101.126516 51.081087 101.126516 50.611027 
C 101.126516 50.140967 100.939759 49.690095 100.607377 49.357713 
C 100.274994 49.02533 99.824123 48.838573 99.354062 48.838573 
C 98.884002 48.838573 98.433131 49.02533 98.100748 49.357713 
C 97.768366 49.690095 97.581609 50.140967 97.581609 50.611027 
C 97.581609 51.081087 97.768366 51.531958 98.100748 51.864341 
C 98.433131 52.196724 98.884002 52.383481 99.354062 52.383481 
L 99.354062 52.383481 
z
" clip-path="url(#p37461ce368)" style="fill: none"/>
    <path d="M 99.354062 60.074446 
C 99.824123 60.074446 100.274994 59.887689 100.607377 59.555306 
C 100.939759 59.222923 101.126516 58.772052 101.126516 58.301992 
C 101.126516 57.831932 100.939759 57.38106 100.607377 57.048678 
C 100.274994 56.716295 99.824123 56.529538 99.354062 56.529538 
C 98.884002 56.529538 98.433131 56.716295 98.100748 57.048678 
C 97.768366 57.38106 97.581609 57.831932 97.581609 58.301992 
C 97.581609 58.772052 97.768366 59.222923 98.100748 59.555306 
C 98.433131 59.887689 98.884002 60.074446 99.354062 60.074446 
L 99.354062 60.074446 
z
" clip-path="url(#p37461ce368)" style="fill: none"/>
    <path d="M 99.354062 56.136999 
C 99.824123 56.136999 100.274994 55.950242 100.607377 55.61786 
C 100.939759 55.285477 101.126516 54.834606 101.126516 54.364546 
C 101.126516 53.894485 100.939759 53.443614 100.607377 53.111231 
C 100.274994 52.778849 99.824123 52.592092 99.354062 52.592092 
C 98.884002 52.592092 98.433131 52.778849 98.100748 53.111231 
C 97.768366 53.443614 97.581609 53.894485 97.581609 54.364546 
C 97.581609 54.834606 97.768366 55.285477 98.100748 55.61786 
C 98.433131 55.950242 98.884002 56.136999 99.354062 56.136999 
L 99.354062 56.136999 
z
" clip-path="url(#p37461ce368)" style="fill: none"/>
    <path d="M 99.354062 56.504374 
C 99.824123 56.504374 100.274994 56.317617 100.607377 55.985235 
C 100.939759 55.652852 101.126516 55.201981 101.126516 54.731921 
C 101.126516 54.26186 100.939759 53.810989 100.607377 53.478606 
C 100.274994 53.146224 99.824123 52.959467 99.354062 52.959467 
C 98.884002 52.959467 98.433131 53.146224 98.100748 53.478606 
C 97.768366 53.810989 97.581609 54.26186 97.581609 54.731921 
C 97.581609 55.201981 97.768366 55.652852 98.100748 55.985235 
C 98.433131 56.317617 98.884002 56.504374 99.354062 56.504374 
L 99.354062 56.504374 
z
" clip-path="url(#p37461ce368)" style="fill: none"/>
    <path d="M 99.354062 53.102138 
C 99.824123 53.102138 100.274994 52.915381 100.607377 52.582999 
C 100.939759 52.250616 101.126516 51.799745 101.126516 51.329685 
C 101.126516 50.859624 100.939759 50.408753 100.607377 50.07637 
C 100.274994 49.743988 99.824123 49.557231 99.354062 49.557231 
C 98.884002 49.557231 98.433131 49.743988 98.100748 50.07637 
C 97.768366 50.408753 97.581609 50.859624 97.581609 51.329685 
C 97.581609 51.799745 97.768366 52.250616 98.100748 52.582999 
C 98.433131 52.915381 98.884002 53.102138 99.354062 53.102138 
L 99.354062 53.102138 
z
" clip-path="url(#p37461ce368)" style="fill: none"/>
    <path d="M 99.354062 61.655083 
C 99.824123 61.655083 100.274994 61.468326 100.607377 61.135943 
C 100.939759 60.80356 101.126516 60.352689 101.126516 59.882629 
C 101.126516 59.412569 100.939759 58.961697 100.607377 58.629315 
C 100.274994 58.296932 99.824123 58.110175 99.354062 58.110175 
C 98.884002 58.110175 98.433131 58.296932 98.100748 58.629315 
C 97.768366 58.961697 97.581609 59.412569 97.581609 59.882629 
C 97.581609 60.352689 97.768366 60.80356 98.100748 61.135943 
C 98.433131 61.468326 98.884002 61.655083 99.354062 61.655083 
L 99.354062 61.655083 
z
" clip-path="url(#p37461ce368)" style="fill: none"/>
    <path d="M 99.354062 57.328955 
C 99.824123 57.328955 100.274994 57.142198 100.607377 56.809815 
C 100.939759 56.477432 101.126516 56.026561 101.126516 55.556501 
C 101.126516 55.086441 100.939759 54.635569 100.607377 54.303187 
C 100.274994 53.970804 99.824123 53.784047 99.354062 53.784047 
C 98.884002 53.784047 98.433131 53.970804 98.100748 54.303187 
C 97.768366 54.635569 97.581609 55.086441 97.581609 55.556501 
C 97.581609 56.026561 97.768366 56.477432 98.100748 56.809815 
C 98.433131 57.142198 98.884002 57.328955 99.354062 57.328955 
L 99.354062 57.328955 
z
" clip-path="url(#p37461ce368)" style="fill: none"/>
   </g>
   <g id="LineCollection_7">
    <path d="M 99.354062 79.431245 
L 99.354062 60.571405 
" clip-path="url(#p37461ce368)" style="fill: none; stroke: #333333; stroke-width: 0.886227"/>
    <path d="M 99.354062 92.047723 
L 99.354062 110.723038 
" clip-path="url(#p37461ce368)" style="fill: none; stroke: #333333; stroke-width: 0.886227"/>
   </g>
   <g id="PolyCollection_4">
    <defs>
     <path id="m7458562e5a" d="M 93.468906 -82.043153 
L 93.468906 -82.043153 
L 105.239219 -82.043153 
L 105.239219 -69.426674 
L 93.468906 -69.426674 
z
" style="stroke: #333333; stroke-width: 0.886227"/>
    </defs>
    <g clip-path="url(#p37461ce368)">
     <use xlink:href="#m7458562e5a" x="0" y="161.474397" style="fill: #57d3db; stroke: #333333; stroke-width: 0.886227"/>
    </g>
   </g>
   <g id="LineCollection_8">
    <path d="M 93.468906 85.477728 
L 105.239219 85.477728 
" clip-path="url(#p37461ce368)" style="fill: none; stroke: #333333; stroke-width: 1.772454"/>
   </g>
   <g id="PathCollection_5">
    <path d="M 121.150937 39.321568 
C 121.620998 39.321568 122.071869 39.134811 122.404252 38.802429 
C 122.736634 38.470046 122.923391 38.019175 122.923391 37.549115 
C 122.923391 37.079054 122.736634 36.628183 122.404252 36.2958 
C 122.071869 35.963418 121.620998 35.776661 121.150937 35.776661 
C 120.680877 35.776661 120.230006 35.963418 119.897623 36.2958 
C 119.565241 36.628183 119.378484 37.079054 119.378484 37.549115 
C 119.378484 38.019175 119.565241 38.470046 119.897623 38.802429 
C 120.230006 39.134811 120.680877 39.321568 121.150937 39.321568 
L 121.150937 39.321568 
z
" clip-path="url(#p37461ce368)" style="fill: none"/>
    <path d="M 121.150937 47.51015 
C 121.620998 47.51015 122.071869 47.323393 122.404252 46.99101 
C 122.736634 46.658627 122.923391 46.207756 122.923391 45.737696 
C 122.923391 45.267635 122.736634 44.816764 122.404252 44.484382 
C 122.071869 44.151999 121.620998 43.965242 121.150937 43.965242 
C 120.680877 43.965242 120.230006 44.151999 119.897623 44.484382 
C 119.565241 44.816764 119.378484 45.267635 119.378484 45.737696 
C 119.378484 46.207756 119.565241 46.658627 119.897623 46.99101 
C 120.230006 47.323393 120.680877 47.51015 121.150937 47.51015 
L 121.150937 47.51015 
z
" clip-path="url(#p37461ce368)" style="fill: none"/>
   </g>
   <g id="LineCollection_9">
    <path d="M 121.150937 69.488985 
L 121.150937 48.005276 
" clip-path="url(#p37461ce368)" style="fill: none; stroke: #333333; stroke-width: 0.886227"/>
    <path d="M 121.150937 84.162327 
L 121.150937 105.903059 
" clip-path="url(#p37461ce368)" style="fill: none; stroke: #333333; stroke-width: 0.886227"/>
   </g>
   <g id="PolyCollection_5">
    <defs>
     <path id="m15fa44b593" d="M 115.265781 -91.985412 
L 115.265781 -91.985412 
L 127.036094 -91.985412 
L 127.036094 -77.31207 
L 115.265781 -77.31207 
z
" style="stroke: #333333; stroke-width: 0.886227"/>
    </defs>
    <g clip-path="url(#p37461ce368)">
     <use xlink:href="#m15fa44b593" x="0" y="161.474397" style="fill: #db5f57; stroke: #333333; stroke-width: 0.886227"/>
    </g>
   </g>
   <g id="LineCollection_10">
    <path d="M 115.265781 76.70363 
L 127.036094 76.70363 
" clip-path="url(#p37461ce368)" style="fill: none; stroke: #333333; stroke-width: 1.772454"/>
   </g>
   <g id="PathCollection_6">
    <path d="M 134.229062 70.762814 
C 134.699123 70.762814 135.149994 70.576058 135.482377 70.243675 
C 135.814759 69.911292 136.001516 69.460421 136.001516 68.990361 
C 136.001516 68.5203 135.814759 68.069429 135.482377 67.737046 
C 135.149994 67.404664 134.699123 67.217907 134.229062 67.217907 
C 133.759002 67.217907 133.308131 67.404664 132.975748 67.737046 
C 132.643366 68.069429 132.456609 68.5203 132.456609 68.990361 
C 132.456609 69.460421 132.643366 69.911292 132.975748 70.243675 
C 133.308131 70.576058 133.759002 70.762814 134.229062 70.762814 
L 134.229062 70.762814 
z
" clip-path="url(#p37461ce368)" style="fill: none"/>
    <path d="M 134.229062 71.222198 
C 134.699123 71.222198 135.149994 71.035441 135.482377 70.703058 
C 135.814759 70.370675 136.001516 69.919804 136.001516 69.449744 
C 136.001516 68.979684 135.814759 68.528813 135.482377 68.19643 
C 135.149994 67.864047 134.699123 67.67729 134.229062 67.67729 
C 133.759002 67.67729 133.308131 67.864047 132.975748 68.19643 
C 132.643366 68.528813 132.456609 68.979684 132.456609 69.449744 
C 132.456609 69.919804 132.643366 70.370675 132.975748 70.703058 
C 133.308131 71.035441 133.759002 71.222198 134.229062 71.222198 
L 134.229062 71.222198 
z
" clip-path="url(#p37461ce368)" style="fill: none"/>
    <path d="M 134.229062 14.012454 
C 134.699123 14.012454 135.149994 13.825697 135.482377 13.493314 
C 135.814759 13.160931 136.001516 12.71006 136.001516 12.24 
C 136.001516 11.76994 135.814759 11.319069 135.482377 10.986686 
C 135.149994 10.654303 134.699123 10.467546 134.229062 10.467546 
C 133.759002 10.467546 133.308131 10.654303 132.975748 10.986686 
C 132.643366 11.319069 132.456609 11.76994 132.456609 12.24 
C 132.456609 12.71006 132.643366 13.160931 132.975748 13.493314 
C 133.308131 13.825697 133.759002 14.012454 134.229062 14.012454 
L 134.229062 14.012454 
z
" clip-path="url(#p37461ce368)" style="fill: none"/>
    <path d="M 134.229062 67.798119 
C 134.699123 67.798119 135.149994 67.611362 135.482377 67.278979 
C 135.814759 66.946596 136.001516 66.495725 136.001516 66.025665 
C 136.001516 65.555605 135.814759 65.104734 135.482377 64.772351 
C 135.149994 64.439968 134.699123 64.253211 134.229062 64.253211 
C 133.759002 64.253211 133.308131 64.439968 132.975748 64.772351 
C 132.643366 65.104734 132.456609 65.555605 132.456609 66.025665 
C 132.456609 66.495725 132.643366 66.946596 132.975748 67.278979 
C 133.308131 67.611362 133.759002 67.798119 134.229062 67.798119 
L 134.229062 67.798119 
z
" clip-path="url(#p37461ce368)" style="fill: none"/>
    <path d="M 134.229062 67.492542 
C 134.699123 67.492542 135.149994 67.305785 135.482377 66.973402 
C 135.814759 66.64102 136.001516 66.190149 136.001516 65.720088 
C 136.001516 65.250028 135.814759 64.799157 135.482377 64.466774 
C 135.149994 64.134391 134.699123 63.947634 134.229062 63.947634 
C 133.759002 63.947634 133.308131 64.134391 132.975748 64.466774 
C 132.643366 64.799157 132.456609 65.250028 132.456609 65.720088 
C 132.456609 66.190149 132.643366 66.64102 132.975748 66.973402 
C 133.308131 67.305785 133.759002 67.492542 134.229062 67.492542 
L 134.229062 67.492542 
z
" clip-path="url(#p37461ce368)" style="fill: none"/>
    <path d="M 134.229062 73.075147 
C 134.699123 73.075147 135.149994 72.888391 135.482377 72.556008 
C 135.814759 72.223625 136.001516 71.772754 136.001516 71.302694 
C 136.001516 70.832633 135.814759 70.381762 135.482377 70.049379 
C 135.149994 69.716997 134.699123 69.53024 134.229062 69.53024 
C 133.759002 69.53024 133.308131 69.716997 132.975748 70.049379 
C 132.643366 70.381762 132.456609 70.832633 132.456609 71.302694 
C 132.456609 71.772754 132.643366 72.223625 132.975748 72.556008 
C 133.308131 72.888391 133.759002 73.075147 134.229062 73.075147 
L 134.229062 73.075147 
z
" clip-path="url(#p37461ce368)" style="fill: none"/>
   </g>
   <g id="LineCollection_11">
    <path d="M 134.229062 33.307577 
L 134.229062 15.516206 
" clip-path="url(#p37461ce368)" style="fill: none; stroke: #333333; stroke-width: 0.886227"/>
    <path d="M 134.229062 45.957233 
L 134.229062 62.817872 
" clip-path="url(#p37461ce368)" style="fill: none; stroke: #333333; stroke-width: 0.886227"/>
   </g>
   <g id="PolyCollection_6">
    <defs>
     <path id="m663aa19517" d="M 128.343906 -128.16682 
L 128.343906 -128.16682 
L 140.114219 -128.16682 
L 140.114219 -115.517164 
L 128.343906 -115.517164 
z
" style="stroke: #333333; stroke-width: 0.886227"/>
    </defs>
    <g clip-path="url(#p37461ce368)">
     <use xlink:href="#m663aa19517" x="0" y="161.474397" style="fill: #57d3db; stroke: #333333; stroke-width: 0.886227"/>
    </g>
   </g>
   <g id="LineCollection_12">
    <path d="M 128.343906 39.882968 
L 140.114219 39.882968 
" clip-path="url(#p37461ce368)" style="fill: none; stroke: #333333; stroke-width: 1.772454"/>
   </g>
   <g id="patch_3">
    <path d="M 37.015 118.08 
L 37.015 7.2 
" style="fill: none; stroke: #000000; stroke-linejoin: miter; stroke-linecap: square"/>
   </g>
   <g id="patch_4">
    <path d="M 37.015 118.08 
L 148.615 118.08 
" style="fill: none; stroke: #000000; stroke-linejoin: miter; stroke-linecap: square"/>
   </g>
  </g>
 </g>
 <defs>
  <clipPath id="p37461ce368">
   <rect x="37.015" y="7.2" width="111.6" height="110.88"/>
  </clipPath>
 </defs>
</svg>
